<?xml version="1.0" encoding="utf-8" standalone="no"?>
<!DOCTYPE svg PUBLIC "-//W3C//DTD SVG 1.1//EN"
  "http://www.w3.org/Graphics/SVG/1.1/DTD/svg11.dtd">
<svg xmlns:xlink="http://www.w3.org/1999/xlink" width="432pt" height="36pt" viewBox="0 0 432 36" xmlns="http://www.w3.org/2000/svg" version="1.1">
 <metadata>
  <rdf:RDF xmlns:dc="http://purl.org/dc/elements/1.1/" xmlns:cc="http://creativecommons.org/ns#" xmlns:rdf="http://www.w3.org/1999/02/22-rdf-syntax-ns#">
   <cc:Work>
    <dc:type rdf:resource="http://purl.org/dc/dcmitype/StillImage"/>
    <dc:date>2025-08-16T23:58:38.194408</dc:date>
    <dc:format>image/svg+xml</dc:format>
    <dc:creator>
     <cc:Agent>
      <dc:title>Matplotlib v3.10.5, https://matplotlib.org/</dc:title>
     </cc:Agent>
    </dc:creator>
   </cc:Work>
  </rdf:RDF>
 </metadata>
 <defs>
  <style type="text/css">*{stroke-linejoin: round; stroke-linecap: butt}</style>
 </defs>
 <g id="figure_1">
  <g id="patch_1">
   <path d="M 0 36 
L 432 36 
L 432 0 
L 0 0 
L 0 36 
z
" style="fill: none"/>
  </g>
  <g id="axes_1">
   <g id="patch_2">
    <path d="M 10.8 25.2 
L 103.532628 25.2 
L 103.532628 18 
L 10.8 18 
z
" clip-path="url(#p58285af845)" style="fill: #306998"/>
   </g>
   <g id="patch_3">
    <path d="M 103.532628 25.2 
L 217.723219 25.2 
L 217.723219 18 
L 103.532628 18 
z
" clip-path="url(#p58285af845)" style="fill: #264de4"/>
   </g>
   <g id="patch_4">
    <path d="M 217.723219 25.2 
L 300.550957 25.2 
L 300.550957 18 
L 217.723219 18 
z
" clip-path="url(#p58285af845)" style="fill: #e34c26"/>
   </g>
   <g id="patch_5">
    <path d="M 300.550957 25.2 
L 421.2 25.2 
L 421.2 18 
L 300.550957 18 
z
" clip-path="url(#p58285af845)" style="fill: #f7df1e"/>
   </g>
   <g id="patch_6">
    <path d="M 421.2 25.2 
L 421.2 25.2 
L 421.2 18 
L 421.2 18 
z
" clip-path="url(#p58285af845)" style="fill: #003b57"/>
   </g>
   <g id="patch_7">
    <path d="M 421.2 25.2 
L 421.2 25.2 
L 421.2 18 
L 421.2 18 
z
" clip-path="url(#p58285af845)" style="fill: #00979d"/>
   </g>
   <g id="patch_8">
    <path d="M 421.2 25.2 
L 421.2 25.2 
L 421.2 18 
L 421.2 18 
z
" clip-path="url(#p58285af845)" style="fill: #00758f"/>
   </g>
  </g>
 </g>
 <defs>
  <clipPath id="p58285af845">
   <rect x="10.8" y="10.8" width="410.4" height="14.4"/>
  </clipPath>
 </defs>
</svg>
