<?xml version="1.0" encoding="utf-8" standalone="no"?>
<!DOCTYPE svg PUBLIC "-//W3C//DTD SVG 1.1//EN"
  "http://www.w3.org/Graphics/SVG/1.1/DTD/svg11.dtd">
<svg xmlns:xlink="http://www.w3.org/1999/xlink" width="432pt" height="108pt" viewBox="0 0 432 108" xmlns="http://www.w3.org/2000/svg" version="1.1">
 <metadata>
  <rdf:RDF xmlns:dc="http://purl.org/dc/elements/1.1/" xmlns:cc="http://creativecommons.org/ns#" xmlns:rdf="http://www.w3.org/1999/02/22-rdf-syntax-ns#">
   <cc:Work>
    <dc:type rdf:resource="http://purl.org/dc/dcmitype/StillImage"/>
    <dc:date>2025-08-16T23:48:07.187346</dc:date>
    <dc:format>image/svg+xml</dc:format>
    <dc:creator>
     <cc:Agent>
      <dc:title>Matplotlib v3.10.5, https://matplotlib.org/</dc:title>
     </cc:Agent>
    </dc:creator>
   </cc:Work>
  </rdf:RDF>
 </metadata>
 <defs>
  <style type="text/css">*{stroke-linejoin: round; stroke-linecap: butt}</style>
 </defs>
 <g id="figure_1">
  <g id="patch_1">
   <path d="M 0 108 
L 432 108 
L 432 0 
L 0 0 
z
" style="fill: #ffffff"/>
  </g>
  <g id="axes_1">
   <g id="patch_2">
    <path d="M 10.8 25.6032 
C 12.613989 25.6032 14.353926 25.34324 15.63661 24.880574 
C 16.919294 24.417907 17.64 23.790309 17.64 23.136 
C 17.64 22.481691 16.919294 21.854093 15.63661 21.391426 
C 14.353926 20.92876 12.613989 20.6688 10.8 20.6688 
C 8.986011 20.6688 7.246074 20.92876 5.96339 21.391426 
C 4.680706 21.854093 3.96 22.481691 3.96 23.136 
C 3.96 23.790309 4.680706 24.417907 5.96339 24.880574 
C 7.246074 25.34324 8.986011 25.6032 10.8 25.6032 
z
" clip-path="url(#p64c06f5c9b)" style="fill: #306998; stroke: #306998; stroke-linejoin: miter"/>
   </g>
   <g id="patch_3">
    <path d="M 10.8 33.0048 
C 12.613989 33.0048 14.353926 32.74484 15.63661 32.282174 
C 16.919294 31.819507 17.64 31.191909 17.64 30.5376 
C 17.64 29.883291 16.919294 29.255693 15.63661 28.793026 
C 14.353926 28.33036 12.613989 28.0704 10.8 28.0704 
C 8.986011 28.0704 7.246074 28.33036 5.96339 28.793026 
C 4.680706 29.255693 3.96 29.883291 3.96 30.5376 
C 3.96 31.191909 4.680706 31.819507 5.96339 32.282174 
C 7.246074 32.74484 8.986011 33.0048 10.8 33.0048 
z
" clip-path="url(#p64c06f5c9b)" style="fill: #264de4; stroke: #264de4; stroke-linejoin: miter"/>
   </g>
   <g id="patch_4">
    <path d="M 10.8 40.4064 
C 12.613989 40.4064 14.353926 40.14644 15.63661 39.683774 
C 16.919294 39.221107 17.64 38.593509 17.64 37.9392 
C 17.64 37.284891 16.919294 36.657293 15.63661 36.194626 
C 14.353926 35.73196 12.613989 35.472 10.8 35.472 
C 8.986011 35.472 7.246074 35.73196 5.96339 36.194626 
C 4.680706 36.657293 3.96 37.284891 3.96 37.9392 
C 3.96 38.593509 4.680706 39.221107 5.96339 39.683774 
C 7.246074 40.14644 8.986011 40.4064 10.8 40.4064 
z
" clip-path="url(#p64c06f5c9b)" style="fill: #e34c26; stroke: #e34c26; stroke-linejoin: miter"/>
   </g>
   <g id="patch_5">
    <path d="M 10.8 47.808 
C 12.613989 47.808 14.353926 47.54804 15.63661 47.085374 
C 16.919294 46.622707 17.64 45.995109 17.64 45.3408 
C 17.64 44.686491 16.919294 44.058893 15.63661 43.596226 
C 14.353926 43.13356 12.613989 42.8736 10.8 42.8736 
C 8.986011 42.8736 7.246074 43.13356 5.96339 43.596226 
C 4.680706 44.058893 3.96 44.686491 3.96 45.3408 
C 3.96 45.995109 4.680706 46.622707 5.96339 47.085374 
C 7.246074 47.54804 8.986011 47.808 10.8 47.808 
z
" clip-path="url(#p64c06f5c9b)" style="fill: #f7df1e; stroke: #f7df1e; stroke-linejoin: miter"/>
   </g>
   <g id="patch_6">
    <path d="M 10.8 55.2096 
C 12.613989 55.2096 14.353926 54.94964 15.63661 54.486974 
C 16.919294 54.024307 17.64 53.396709 17.64 52.7424 
C 17.64 52.088091 16.919294 51.460493 15.63661 50.997826 
C 14.353926 50.53516 12.613989 50.2752 10.8 50.2752 
C 8.986011 50.2752 7.246074 50.53516 5.96339 50.997826 
C 4.680706 51.460493 3.96 52.088091 3.96 52.7424 
C 3.96 53.396709 4.680706 54.024307 5.96339 54.486974 
C 7.246074 54.94964 8.986011 55.2096 10.8 55.2096 
z
" clip-path="url(#p64c06f5c9b)" style="fill: #003b57; stroke: #003b57; stroke-linejoin: miter"/>
   </g>
   <g id="patch_7">
    <path d="M 10.8 62.6112 
C 12.613989 62.6112 14.353926 62.35124 15.63661 61.888574 
C 16.919294 61.425907 17.64 60.798309 17.64 60.144 
C 17.64 59.489691 16.919294 58.862093 15.63661 58.399426 
C 14.353926 57.93676 12.613989 57.6768 10.8 57.6768 
C 8.986011 57.6768 7.246074 57.93676 5.96339 58.399426 
C 4.680706 58.862093 3.96 59.489691 3.96 60.144 
C 3.96 60.798309 4.680706 61.425907 5.96339 61.888574 
C 7.246074 62.35124 8.986011 62.6112 10.8 62.6112 
z
" clip-path="url(#p64c06f5c9b)" style="fill: #00979d; stroke: #00979d; stroke-linejoin: miter"/>
   </g>
   <g id="patch_8">
    <path d="M 10.8 70.0128 
C 12.613989 70.0128 14.353926 69.75284 15.63661 69.290174 
C 16.919294 68.827507 17.64 68.199909 17.64 67.5456 
C 17.64 66.891291 16.919294 66.263693 15.63661 65.801026 
C 14.353926 65.33836 12.613989 65.0784 10.8 65.0784 
C 8.986011 65.0784 7.246074 65.33836 5.96339 65.801026 
C 4.680706 66.263693 3.96 66.891291 3.96 67.5456 
C 3.96 68.199909 4.680706 68.827507 5.96339 69.290174 
C 7.246074 69.75284 8.986011 70.0128 10.8 70.0128 
z
" clip-path="url(#p64c06f5c9b)" style="fill: #00758f; stroke: #00758f; stroke-linejoin: miter"/>
   </g>
   <g id="text_1">
    <!-- Python 22.6% -->
    <g transform="translate(24.48 25.895375) scale(0.1 -0.1)">
     <defs>
      <path id="DejaVuSans-50" d="M 1259 4147 
L 1259 2394 
L 2053 2394 
Q 2494 2394 2734 2622 
Q 2975 2850 2975 3272 
Q 2975 3691 2734 3919 
Q 2494 4147 2053 4147 
L 1259 4147 
z
M 628 4666 
L 2053 4666 
Q 2838 4666 3239 4311 
Q 3641 3956 3641 3272 
Q 3641 2581 3239 2228 
Q 2838 1875 2053 1875 
L 1259 1875 
L 1259 0 
L 628 0 
L 628 4666 
z
" transform="scale(0.015625)"/>
      <path id="DejaVuSans-79" d="M 2059 -325 
Q 1816 -950 1584 -1140 
Q 1353 -1331 966 -1331 
L 506 -1331 
L 506 -850 
L 844 -850 
Q 1081 -850 1212 -737 
Q 1344 -625 1503 -206 
L 1606 56 
L 191 3500 
L 800 3500 
L 1894 763 
L 2988 3500 
L 3597 3500 
L 2059 -325 
z
" transform="scale(0.015625)"/>
      <path id="DejaVuSans-74" d="M 1172 4494 
L 1172 3500 
L 2356 3500 
L 2356 3053 
L 1172 3053 
L 1172 1153 
Q 1172 725 1289 603 
Q 1406 481 1766 481 
L 2356 481 
L 2356 0 
L 1766 0 
Q 1100 0 847 248 
Q 594 497 594 1153 
L 594 3053 
L 172 3053 
L 172 3500 
L 594 3500 
L 594 4494 
L 1172 4494 
z
" transform="scale(0.015625)"/>
      <path id="DejaVuSans-68" d="M 3513 2113 
L 3513 0 
L 2938 0 
L 2938 2094 
Q 2938 2591 2744 2837 
Q 2550 3084 2163 3084 
Q 1697 3084 1428 2787 
Q 1159 2491 1159 1978 
L 1159 0 
L 581 0 
L 581 4863 
L 1159 4863 
L 1159 2956 
Q 1366 3272 1645 3428 
Q 1925 3584 2291 3584 
Q 2894 3584 3203 3211 
Q 3513 2838 3513 2113 
z
" transform="scale(0.015625)"/>
      <path id="DejaVuSans-6f" d="M 1959 3097 
Q 1497 3097 1228 2736 
Q 959 2375 959 1747 
Q 959 1119 1226 758 
Q 1494 397 1959 397 
Q 2419 397 2687 759 
Q 2956 1122 2956 1747 
Q 2956 2369 2687 2733 
Q 2419 3097 1959 3097 
z
M 1959 3584 
Q 2709 3584 3137 3096 
Q 3566 2609 3566 1747 
Q 3566 888 3137 398 
Q 2709 -91 1959 -91 
Q 1206 -91 779 398 
Q 353 888 353 1747 
Q 353 2609 779 3096 
Q 1206 3584 1959 3584 
z
" transform="scale(0.015625)"/>
      <path id="DejaVuSans-6e" d="M 3513 2113 
L 3513 0 
L 2938 0 
L 2938 2094 
Q 2938 2591 2744 2837 
Q 2550 3084 2163 3084 
Q 1697 3084 1428 2787 
Q 1159 2491 1159 1978 
L 1159 0 
L 581 0 
L 581 3500 
L 1159 3500 
L 1159 2956 
Q 1366 3272 1645 3428 
Q 1925 3584 2291 3584 
Q 2894 3584 3203 3211 
Q 3513 2838 3513 2113 
z
" transform="scale(0.015625)"/>
      <path id="DejaVuSans-20" transform="scale(0.015625)"/>
      <path id="DejaVuSans-32" d="M 1228 531 
L 3431 531 
L 3431 0 
L 469 0 
L 469 531 
Q 828 903 1448 1529 
Q 2069 2156 2228 2338 
Q 2531 2678 2651 2914 
Q 2772 3150 2772 3378 
Q 2772 3750 2511 3984 
Q 2250 4219 1831 4219 
Q 1534 4219 1204 4116 
Q 875 4013 500 3803 
L 500 4441 
Q 881 4594 1212 4672 
Q 1544 4750 1819 4750 
Q 2544 4750 2975 4387 
Q 3406 4025 3406 3419 
Q 3406 3131 3298 2873 
Q 3191 2616 2906 2266 
Q 2828 2175 2409 1742 
Q 1991 1309 1228 531 
z
" transform="scale(0.015625)"/>
      <path id="DejaVuSans-2e" d="M 684 794 
L 1344 794 
L 1344 0 
L 684 0 
L 684 794 
z
" transform="scale(0.015625)"/>
      <path id="DejaVuSans-36" d="M 2113 2584 
Q 1688 2584 1439 2293 
Q 1191 2003 1191 1497 
Q 1191 994 1439 701 
Q 1688 409 2113 409 
Q 2538 409 2786 701 
Q 3034 994 3034 1497 
Q 3034 2003 2786 2293 
Q 2538 2584 2113 2584 
z
M 3366 4563 
L 3366 3988 
Q 3128 4100 2886 4159 
Q 2644 4219 2406 4219 
Q 1781 4219 1451 3797 
Q 1122 3375 1075 2522 
Q 1259 2794 1537 2939 
Q 1816 3084 2150 3084 
Q 2853 3084 3261 2657 
Q 3669 2231 3669 1497 
Q 3669 778 3244 343 
Q 2819 -91 2113 -91 
Q 1303 -91 875 529 
Q 447 1150 447 2328 
Q 447 3434 972 4092 
Q 1497 4750 2381 4750 
Q 2619 4750 2861 4703 
Q 3103 4656 3366 4563 
z
" transform="scale(0.015625)"/>
      <path id="DejaVuSans-25" d="M 4653 2053 
Q 4381 2053 4226 1822 
Q 4072 1591 4072 1178 
Q 4072 772 4226 539 
Q 4381 306 4653 306 
Q 4919 306 5073 539 
Q 5228 772 5228 1178 
Q 5228 1588 5073 1820 
Q 4919 2053 4653 2053 
z
M 4653 2450 
Q 5147 2450 5437 2106 
Q 5728 1763 5728 1178 
Q 5728 594 5436 251 
Q 5144 -91 4653 -91 
Q 4153 -91 3862 251 
Q 3572 594 3572 1178 
Q 3572 1766 3864 2108 
Q 4156 2450 4653 2450 
z
M 1428 4353 
Q 1159 4353 1004 4120 
Q 850 3888 850 3481 
Q 850 3069 1003 2837 
Q 1156 2606 1428 2606 
Q 1700 2606 1854 2837 
Q 2009 3069 2009 3481 
Q 2009 3884 1853 4118 
Q 1697 4353 1428 4353 
z
M 4250 4750 
L 4750 4750 
L 1831 -91 
L 1331 -91 
L 4250 4750 
z
M 1428 4750 
Q 1922 4750 2215 4408 
Q 2509 4066 2509 3481 
Q 2509 2891 2217 2550 
Q 1925 2209 1428 2209 
Q 931 2209 642 2551 
Q 353 2894 353 3481 
Q 353 4063 643 4406 
Q 934 4750 1428 4750 
z
" transform="scale(0.015625)"/>
     </defs>
     <use xlink:href="#DejaVuSans-50"/>
     <use xlink:href="#DejaVuSans-79" transform="translate(60.302734 0)"/>
     <use xlink:href="#DejaVuSans-74" transform="translate(119.482422 0)"/>
     <use xlink:href="#DejaVuSans-68" transform="translate(158.691406 0)"/>
     <use xlink:href="#DejaVuSans-6f" transform="translate(222.070312 0)"/>
     <use xlink:href="#DejaVuSans-6e" transform="translate(283.251953 0)"/>
     <use xlink:href="#DejaVuSans-20" transform="translate(346.630859 0)"/>
     <use xlink:href="#DejaVuSans-32" transform="translate(378.417969 0)"/>
     <use xlink:href="#DejaVuSans-32" transform="translate(442.041016 0)"/>
     <use xlink:href="#DejaVuSans-2e" transform="translate(505.664062 0)"/>
     <use xlink:href="#DejaVuSans-36" transform="translate(537.451172 0)"/>
     <use xlink:href="#DejaVuSans-25" transform="translate(601.074219 0)"/>
    </g>
   </g>
   <g id="text_2">
    <!-- CSS 27.8% -->
    <g transform="translate(24.48 33.296975) scale(0.1 -0.1)">
     <defs>
      <path id="DejaVuSans-43" d="M 4122 4306 
L 4122 3641 
Q 3803 3938 3442 4084 
Q 3081 4231 2675 4231 
Q 1875 4231 1450 3742 
Q 1025 3253 1025 2328 
Q 1025 1406 1450 917 
Q 1875 428 2675 428 
Q 3081 428 3442 575 
Q 3803 722 4122 1019 
L 4122 359 
Q 3791 134 3420 21 
Q 3050 -91 2638 -91 
Q 1578 -91 968 557 
Q 359 1206 359 2328 
Q 359 3453 968 4101 
Q 1578 4750 2638 4750 
Q 3056 4750 3426 4639 
Q 3797 4528 4122 4306 
z
" transform="scale(0.015625)"/>
      <path id="DejaVuSans-53" d="M 3425 4513 
L 3425 3897 
Q 3066 4069 2747 4153 
Q 2428 4238 2131 4238 
Q 1616 4238 1336 4038 
Q 1056 3838 1056 3469 
Q 1056 3159 1242 3001 
Q 1428 2844 1947 2747 
L 2328 2669 
Q 3034 2534 3370 2195 
Q 3706 1856 3706 1288 
Q 3706 609 3251 259 
Q 2797 -91 1919 -91 
Q 1588 -91 1214 -16 
Q 841 59 441 206 
L 441 856 
Q 825 641 1194 531 
Q 1563 422 1919 422 
Q 2459 422 2753 634 
Q 3047 847 3047 1241 
Q 3047 1584 2836 1778 
Q 2625 1972 2144 2069 
L 1759 2144 
Q 1053 2284 737 2584 
Q 422 2884 422 3419 
Q 422 4038 858 4394 
Q 1294 4750 2059 4750 
Q 2388 4750 2728 4690 
Q 3069 4631 3425 4513 
z
" transform="scale(0.015625)"/>
      <path id="DejaVuSans-37" d="M 525 4666 
L 3525 4666 
L 3525 4397 
L 1831 0 
L 1172 0 
L 2766 4134 
L 525 4134 
L 525 4666 
z
" transform="scale(0.015625)"/>
      <path id="DejaVuSans-38" d="M 2034 2216 
Q 1584 2216 1326 1975 
Q 1069 1734 1069 1313 
Q 1069 891 1326 650 
Q 1584 409 2034 409 
Q 2484 409 2743 651 
Q 3003 894 3003 1313 
Q 3003 1734 2745 1975 
Q 2488 2216 2034 2216 
z
M 1403 2484 
Q 997 2584 770 2862 
Q 544 3141 544 3541 
Q 544 4100 942 4425 
Q 1341 4750 2034 4750 
Q 2731 4750 3128 4425 
Q 3525 4100 3525 3541 
Q 3525 3141 3298 2862 
Q 3072 2584 2669 2484 
Q 3125 2378 3379 2068 
Q 3634 1759 3634 1313 
Q 3634 634 3220 271 
Q 2806 -91 2034 -91 
Q 1263 -91 848 271 
Q 434 634 434 1313 
Q 434 1759 690 2068 
Q 947 2378 1403 2484 
z
M 1172 3481 
Q 1172 3119 1398 2916 
Q 1625 2713 2034 2713 
Q 2441 2713 2670 2916 
Q 2900 3119 2900 3481 
Q 2900 3844 2670 4047 
Q 2441 4250 2034 4250 
Q 1625 4250 1398 4047 
Q 1172 3844 1172 3481 
z
" transform="scale(0.015625)"/>
     </defs>
     <use xlink:href="#DejaVuSans-43"/>
     <use xlink:href="#DejaVuSans-53" transform="translate(69.824219 0)"/>
     <use xlink:href="#DejaVuSans-53" transform="translate(133.300781 0)"/>
     <use xlink:href="#DejaVuSans-20" transform="translate(196.777344 0)"/>
     <use xlink:href="#DejaVuSans-32" transform="translate(228.564453 0)"/>
     <use xlink:href="#DejaVuSans-37" transform="translate(292.1875 0)"/>
     <use xlink:href="#DejaVuSans-2e" transform="translate(355.810547 0)"/>
     <use xlink:href="#DejaVuSans-38" transform="translate(387.597656 0)"/>
     <use xlink:href="#DejaVuSans-25" transform="translate(451.220703 0)"/>
    </g>
   </g>
   <g id="text_3">
    <!-- HTML 20.2% -->
    <g transform="translate(24.48 40.698575) scale(0.1 -0.1)">
     <defs>
      <path id="DejaVuSans-48" d="M 628 4666 
L 1259 4666 
L 1259 2753 
L 3553 2753 
L 3553 4666 
L 4184 4666 
L 4184 0 
L 3553 0 
L 3553 2222 
L 1259 2222 
L 1259 0 
L 628 0 
L 628 4666 
z
" transform="scale(0.015625)"/>
      <path id="DejaVuSans-54" d="M -19 4666 
L 3928 4666 
L 3928 4134 
L 2272 4134 
L 2272 0 
L 1638 0 
L 1638 4134 
L -19 4134 
L -19 4666 
z
" transform="scale(0.015625)"/>
      <path id="DejaVuSans-4d" d="M 628 4666 
L 1569 4666 
L 2759 1491 
L 3956 4666 
L 4897 4666 
L 4897 0 
L 4281 0 
L 4281 4097 
L 3078 897 
L 2444 897 
L 1241 4097 
L 1241 0 
L 628 0 
L 628 4666 
z
" transform="scale(0.015625)"/>
      <path id="DejaVuSans-4c" d="M 628 4666 
L 1259 4666 
L 1259 531 
L 3531 531 
L 3531 0 
L 628 0 
L 628 4666 
z
" transform="scale(0.015625)"/>
      <path id="DejaVuSans-30" d="M 2034 4250 
Q 1547 4250 1301 3770 
Q 1056 3291 1056 2328 
Q 1056 1369 1301 889 
Q 1547 409 2034 409 
Q 2525 409 2770 889 
Q 3016 1369 3016 2328 
Q 3016 3291 2770 3770 
Q 2525 4250 2034 4250 
z
M 2034 4750 
Q 2819 4750 3233 4129 
Q 3647 3509 3647 2328 
Q 3647 1150 3233 529 
Q 2819 -91 2034 -91 
Q 1250 -91 836 529 
Q 422 1150 422 2328 
Q 422 3509 836 4129 
Q 1250 4750 2034 4750 
z
" transform="scale(0.015625)"/>
     </defs>
     <use xlink:href="#DejaVuSans-48"/>
     <use xlink:href="#DejaVuSans-54" transform="translate(75.195312 0)"/>
     <use xlink:href="#DejaVuSans-4d" transform="translate(136.279297 0)"/>
     <use xlink:href="#DejaVuSans-4c" transform="translate(222.558594 0)"/>
     <use xlink:href="#DejaVuSans-20" transform="translate(278.271484 0)"/>
     <use xlink:href="#DejaVuSans-32" transform="translate(310.058594 0)"/>
     <use xlink:href="#DejaVuSans-30" transform="translate(373.681641 0)"/>
     <use xlink:href="#DejaVuSans-2e" transform="translate(437.304688 0)"/>
     <use xlink:href="#DejaVuSans-32" transform="translate(469.091797 0)"/>
     <use xlink:href="#DejaVuSans-25" transform="translate(532.714844 0)"/>
    </g>
   </g>
   <g id="text_4">
    <!-- JavaScript 29.4% -->
    <g transform="translate(24.48 48.100175) scale(0.1 -0.1)">
     <defs>
      <path id="DejaVuSans-4a" d="M 628 4666 
L 1259 4666 
L 1259 325 
Q 1259 -519 939 -900 
Q 619 -1281 -91 -1281 
L -331 -1281 
L -331 -750 
L -134 -750 
Q 284 -750 456 -515 
Q 628 -281 628 325 
L 628 4666 
z
" transform="scale(0.015625)"/>
      <path id="DejaVuSans-61" d="M 2194 1759 
Q 1497 1759 1228 1600 
Q 959 1441 959 1056 
Q 959 750 1161 570 
Q 1363 391 1709 391 
Q 2188 391 2477 730 
Q 2766 1069 2766 1631 
L 2766 1759 
L 2194 1759 
z
M 3341 1997 
L 3341 0 
L 2766 0 
L 2766 531 
Q 2569 213 2275 61 
Q 1981 -91 1556 -91 
Q 1019 -91 701 211 
Q 384 513 384 1019 
Q 384 1609 779 1909 
Q 1175 2209 1959 2209 
L 2766 2209 
L 2766 2266 
Q 2766 2663 2505 2880 
Q 2244 3097 1772 3097 
Q 1472 3097 1187 3025 
Q 903 2953 641 2809 
L 641 3341 
Q 956 3463 1253 3523 
Q 1550 3584 1831 3584 
Q 2591 3584 2966 3190 
Q 3341 2797 3341 1997 
z
" transform="scale(0.015625)"/>
      <path id="DejaVuSans-76" d="M 191 3500 
L 800 3500 
L 1894 563 
L 2988 3500 
L 3597 3500 
L 2284 0 
L 1503 0 
L 191 3500 
z
" transform="scale(0.015625)"/>
      <path id="DejaVuSans-63" d="M 3122 3366 
L 3122 2828 
Q 2878 2963 2633 3030 
Q 2388 3097 2138 3097 
Q 1578 3097 1268 2742 
Q 959 2388 959 1747 
Q 959 1106 1268 751 
Q 1578 397 2138 397 
Q 2388 397 2633 464 
Q 2878 531 3122 666 
L 3122 134 
Q 2881 22 2623 -34 
Q 2366 -91 2075 -91 
Q 1284 -91 818 406 
Q 353 903 353 1747 
Q 353 2603 823 3093 
Q 1294 3584 2113 3584 
Q 2378 3584 2631 3529 
Q 2884 3475 3122 3366 
z
" transform="scale(0.015625)"/>
      <path id="DejaVuSans-72" d="M 2631 2963 
Q 2534 3019 2420 3045 
Q 2306 3072 2169 3072 
Q 1681 3072 1420 2755 
Q 1159 2438 1159 1844 
L 1159 0 
L 581 0 
L 581 3500 
L 1159 3500 
L 1159 2956 
Q 1341 3275 1631 3429 
Q 1922 3584 2338 3584 
Q 2397 3584 2469 3576 
Q 2541 3569 2628 3553 
L 2631 2963 
z
" transform="scale(0.015625)"/>
      <path id="DejaVuSans-69" d="M 603 3500 
L 1178 3500 
L 1178 0 
L 603 0 
L 603 3500 
z
M 603 4863 
L 1178 4863 
L 1178 4134 
L 603 4134 
L 603 4863 
z
" transform="scale(0.015625)"/>
      <path id="DejaVuSans-70" d="M 1159 525 
L 1159 -1331 
L 581 -1331 
L 581 3500 
L 1159 3500 
L 1159 2969 
Q 1341 3281 1617 3432 
Q 1894 3584 2278 3584 
Q 2916 3584 3314 3078 
Q 3713 2572 3713 1747 
Q 3713 922 3314 415 
Q 2916 -91 2278 -91 
Q 1894 -91 1617 61 
Q 1341 213 1159 525 
z
M 3116 1747 
Q 3116 2381 2855 2742 
Q 2594 3103 2138 3103 
Q 1681 3103 1420 2742 
Q 1159 2381 1159 1747 
Q 1159 1113 1420 752 
Q 1681 391 2138 391 
Q 2594 391 2855 752 
Q 3116 1113 3116 1747 
z
" transform="scale(0.015625)"/>
      <path id="DejaVuSans-39" d="M 703 97 
L 703 672 
Q 941 559 1184 500 
Q 1428 441 1663 441 
Q 2288 441 2617 861 
Q 2947 1281 2994 2138 
Q 2813 1869 2534 1725 
Q 2256 1581 1919 1581 
Q 1219 1581 811 2004 
Q 403 2428 403 3163 
Q 403 3881 828 4315 
Q 1253 4750 1959 4750 
Q 2769 4750 3195 4129 
Q 3622 3509 3622 2328 
Q 3622 1225 3098 567 
Q 2575 -91 1691 -91 
Q 1453 -91 1209 -44 
Q 966 3 703 97 
z
M 1959 2075 
Q 2384 2075 2632 2365 
Q 2881 2656 2881 3163 
Q 2881 3666 2632 3958 
Q 2384 4250 1959 4250 
Q 1534 4250 1286 3958 
Q 1038 3666 1038 3163 
Q 1038 2656 1286 2365 
Q 1534 2075 1959 2075 
z
" transform="scale(0.015625)"/>
      <path id="DejaVuSans-34" d="M 2419 4116 
L 825 1625 
L 2419 1625 
L 2419 4116 
z
M 2253 4666 
L 3047 4666 
L 3047 1625 
L 3713 1625 
L 3713 1100 
L 3047 1100 
L 3047 0 
L 2419 0 
L 2419 1100 
L 313 1100 
L 313 1709 
L 2253 4666 
z
" transform="scale(0.015625)"/>
     </defs>
     <use xlink:href="#DejaVuSans-4a"/>
     <use xlink:href="#DejaVuSans-61" transform="translate(29.492188 0)"/>
     <use xlink:href="#DejaVuSans-76" transform="translate(90.771484 0)"/>
     <use xlink:href="#DejaVuSans-61" transform="translate(149.951172 0)"/>
     <use xlink:href="#DejaVuSans-53" transform="translate(211.230469 0)"/>
     <use xlink:href="#DejaVuSans-63" transform="translate(274.707031 0)"/>
     <use xlink:href="#DejaVuSans-72" transform="translate(329.6875 0)"/>
     <use xlink:href="#DejaVuSans-69" transform="translate(370.800781 0)"/>
     <use xlink:href="#DejaVuSans-70" transform="translate(398.583984 0)"/>
     <use xlink:href="#DejaVuSans-74" transform="translate(462.060547 0)"/>
     <use xlink:href="#DejaVuSans-20" transform="translate(501.269531 0)"/>
     <use xlink:href="#DejaVuSans-32" transform="translate(533.056641 0)"/>
     <use xlink:href="#DejaVuSans-39" transform="translate(596.679688 0)"/>
     <use xlink:href="#DejaVuSans-2e" transform="translate(660.302734 0)"/>
     <use xlink:href="#DejaVuSans-34" transform="translate(692.089844 0)"/>
     <use xlink:href="#DejaVuSans-25" transform="translate(755.712891 0)"/>
    </g>
   </g>
   <g id="text_5">
    <!-- SQLite 0.0% -->
    <g transform="translate(24.48 55.501775) scale(0.1 -0.1)">
     <defs>
      <path id="DejaVuSans-51" d="M 2522 4238 
Q 1834 4238 1429 3725 
Q 1025 3213 1025 2328 
Q 1025 1447 1429 934 
Q 1834 422 2522 422 
Q 3209 422 3611 934 
Q 4013 1447 4013 2328 
Q 4013 3213 3611 3725 
Q 3209 4238 2522 4238 
z
M 3406 84 
L 4238 -825 
L 3475 -825 
L 2784 -78 
Q 2681 -84 2626 -87 
Q 2572 -91 2522 -91 
Q 1538 -91 948 567 
Q 359 1225 359 2328 
Q 359 3434 948 4092 
Q 1538 4750 2522 4750 
Q 3503 4750 4090 4092 
Q 4678 3434 4678 2328 
Q 4678 1516 4351 937 
Q 4025 359 3406 84 
z
" transform="scale(0.015625)"/>
      <path id="DejaVuSans-65" d="M 3597 1894 
L 3597 1613 
L 953 1613 
Q 991 1019 1311 708 
Q 1631 397 2203 397 
Q 2534 397 2845 478 
Q 3156 559 3463 722 
L 3463 178 
Q 3153 47 2828 -22 
Q 2503 -91 2169 -91 
Q 1331 -91 842 396 
Q 353 884 353 1716 
Q 353 2575 817 3079 
Q 1281 3584 2069 3584 
Q 2775 3584 3186 3129 
Q 3597 2675 3597 1894 
z
M 3022 2063 
Q 3016 2534 2758 2815 
Q 2500 3097 2075 3097 
Q 1594 3097 1305 2825 
Q 1016 2553 972 2059 
L 3022 2063 
z
" transform="scale(0.015625)"/>
     </defs>
     <use xlink:href="#DejaVuSans-53"/>
     <use xlink:href="#DejaVuSans-51" transform="translate(63.476562 0)"/>
     <use xlink:href="#DejaVuSans-4c" transform="translate(142.1875 0)"/>
     <use xlink:href="#DejaVuSans-69" transform="translate(197.900391 0)"/>
     <use xlink:href="#DejaVuSans-74" transform="translate(225.683594 0)"/>
     <use xlink:href="#DejaVuSans-65" transform="translate(264.892578 0)"/>
     <use xlink:href="#DejaVuSans-20" transform="translate(326.416016 0)"/>
     <use xlink:href="#DejaVuSans-30" transform="translate(358.203125 0)"/>
     <use xlink:href="#DejaVuSans-2e" transform="translate(421.826172 0)"/>
     <use xlink:href="#DejaVuSans-30" transform="translate(453.613281 0)"/>
     <use xlink:href="#DejaVuSans-25" transform="translate(517.236328 0)"/>
    </g>
   </g>
   <g id="text_6">
    <!-- Arduino 0.0% -->
    <g transform="translate(24.48 62.903375) scale(0.1 -0.1)">
     <defs>
      <path id="DejaVuSans-41" d="M 2188 4044 
L 1331 1722 
L 3047 1722 
L 2188 4044 
z
M 1831 4666 
L 2547 4666 
L 4325 0 
L 3669 0 
L 3244 1197 
L 1141 1197 
L 716 0 
L 50 0 
L 1831 4666 
z
" transform="scale(0.015625)"/>
      <path id="DejaVuSans-64" d="M 2906 2969 
L 2906 4863 
L 3481 4863 
L 3481 0 
L 2906 0 
L 2906 525 
Q 2725 213 2448 61 
Q 2172 -91 1784 -91 
Q 1150 -91 751 415 
Q 353 922 353 1747 
Q 353 2572 751 3078 
Q 1150 3584 1784 3584 
Q 2172 3584 2448 3432 
Q 2725 3281 2906 2969 
z
M 947 1747 
Q 947 1113 1208 752 
Q 1469 391 1925 391 
Q 2381 391 2643 752 
Q 2906 1113 2906 1747 
Q 2906 2381 2643 2742 
Q 2381 3103 1925 3103 
Q 1469 3103 1208 2742 
Q 947 2381 947 1747 
z
" transform="scale(0.015625)"/>
      <path id="DejaVuSans-75" d="M 544 1381 
L 544 3500 
L 1119 3500 
L 1119 1403 
Q 1119 906 1312 657 
Q 1506 409 1894 409 
Q 2359 409 2629 706 
Q 2900 1003 2900 1516 
L 2900 3500 
L 3475 3500 
L 3475 0 
L 2900 0 
L 2900 538 
Q 2691 219 2414 64 
Q 2138 -91 1772 -91 
Q 1169 -91 856 284 
Q 544 659 544 1381 
z
M 1991 3584 
L 1991 3584 
z
" transform="scale(0.015625)"/>
     </defs>
     <use xlink:href="#DejaVuSans-41"/>
     <use xlink:href="#DejaVuSans-72" transform="translate(68.408203 0)"/>
     <use xlink:href="#DejaVuSans-64" transform="translate(107.771484 0)"/>
     <use xlink:href="#DejaVuSans-75" transform="translate(171.248047 0)"/>
     <use xlink:href="#DejaVuSans-69" transform="translate(234.626953 0)"/>
     <use xlink:href="#DejaVuSans-6e" transform="translate(262.410156 0)"/>
     <use xlink:href="#DejaVuSans-6f" transform="translate(325.789062 0)"/>
     <use xlink:href="#DejaVuSans-20" transform="translate(386.970703 0)"/>
     <use xlink:href="#DejaVuSans-30" transform="translate(418.757812 0)"/>
     <use xlink:href="#DejaVuSans-2e" transform="translate(482.380859 0)"/>
     <use xlink:href="#DejaVuSans-30" transform="translate(514.167969 0)"/>
     <use xlink:href="#DejaVuSans-25" transform="translate(577.791016 0)"/>
    </g>
   </g>
   <g id="text_7">
    <!-- MySQL 0.0% -->
    <g transform="translate(24.48 70.304975) scale(0.1 -0.1)">
     <use xlink:href="#DejaVuSans-4d"/>
     <use xlink:href="#DejaVuSans-79" transform="translate(86.279297 0)"/>
     <use xlink:href="#DejaVuSans-53" transform="translate(145.458984 0)"/>
     <use xlink:href="#DejaVuSans-51" transform="translate(208.935547 0)"/>
     <use xlink:href="#DejaVuSans-4c" transform="translate(287.646484 0)"/>
     <use xlink:href="#DejaVuSans-20" transform="translate(343.359375 0)"/>
     <use xlink:href="#DejaVuSans-30" transform="translate(375.146484 0)"/>
     <use xlink:href="#DejaVuSans-2e" transform="translate(438.769531 0)"/>
     <use xlink:href="#DejaVuSans-30" transform="translate(470.556641 0)"/>
     <use xlink:href="#DejaVuSans-25" transform="translate(534.179688 0)"/>
    </g>
   </g>
  </g>
 </g>
 <defs>
  <clipPath id="p64c06f5c9b">
   <rect x="10.8" y="10.8" width="410.4" height="37.008"/>
  </clipPath>
 </defs>
</svg>
