<?xml version="1.0" encoding="utf-8" standalone="no"?>
<!DOCTYPE svg PUBLIC "-//W3C//DTD SVG 1.1//EN"
  "http://www.w3.org/Graphics/SVG/1.1/DTD/svg11.dtd">
<svg xmlns:xlink="http://www.w3.org/1999/xlink" width="576pt" height="158.4pt" viewBox="0 0 576 158.4" xmlns="http://www.w3.org/2000/svg" version="1.1">
 <metadata>
  <rdf:RDF xmlns:dc="http://purl.org/dc/elements/1.1/" xmlns:cc="http://creativecommons.org/ns#" xmlns:rdf="http://www.w3.org/1999/02/22-rdf-syntax-ns#">
   <cc:Work>
    <dc:type rdf:resource="http://purl.org/dc/dcmitype/StillImage"/>
    <dc:date>2025-08-17T00:12:29.052379</dc:date>
    <dc:format>image/svg+xml</dc:format>
    <dc:creator>
     <cc:Agent>
      <dc:title>Matplotlib v3.10.5, https://matplotlib.org/</dc:title>
     </cc:Agent>
    </dc:creator>
   </cc:Work>
  </rdf:RDF>
 </metadata>
 <defs>
  <style type="text/css">*{stroke-linejoin: round; stroke-linecap: butt}</style>
 </defs>
 <g id="figure_1">
  <g id="patch_1">
   <path d="M 0 158.4 
L 576 158.4 
L 576 0 
L 0 0 
L 0 158.4 
z
" style="fill: none"/>
  </g>
  <g id="axes_1">
   <g id="patch_2">
    <path d="M 10.8 32.861455 
L 136.070392 32.861455 
L 136.070392 26.558182 
L 10.8 26.558182 
z
" clip-path="url(#pfebbbd82a1)" style="fill: #306998"/>
   </g>
   <g id="patch_3">
    <path d="M 136.070392 32.861455 
L 290.327858 32.861455 
L 290.327858 26.558182 
L 136.070392 26.558182 
z
" clip-path="url(#pfebbbd82a1)" style="fill: #264de4"/>
   </g>
   <g id="patch_4">
    <path d="M 290.327858 32.861455 
L 402.217959 32.861455 
L 402.217959 26.558182 
L 290.327858 26.558182 
z
" clip-path="url(#pfebbbd82a1)" style="fill: #e34c26"/>
   </g>
   <g id="patch_5">
    <path d="M 402.217959 32.861455 
L 565.2 32.861455 
L 565.2 26.558182 
L 402.217959 26.558182 
z
" clip-path="url(#pfebbbd82a1)" style="fill: #f7df1e"/>
   </g>
   <g id="patch_6">
    <path d="M 565.2 32.861455 
L 565.2 32.861455 
L 565.2 26.558182 
L 565.2 26.558182 
z
" clip-path="url(#pfebbbd82a1)" style="fill: #003b57"/>
   </g>
   <g id="patch_7">
    <path d="M 565.2 32.861455 
L 565.2 32.861455 
L 565.2 26.558182 
L 565.2 26.558182 
z
" clip-path="url(#pfebbbd82a1)" style="fill: #00979d"/>
   </g>
   <g id="patch_8">
    <path d="M 565.2 32.861455 
L 565.2 32.861455 
L 565.2 26.558182 
L 565.2 26.558182 
z
" clip-path="url(#pfebbbd82a1)" style="fill: #00758f"/>
   </g>
   <g id="patch_9">
    <path d="M 11.3544 50.825782 
C 11.45732 50.825782 11.556039 50.593328 11.628814 50.179617 
C 11.701589 49.765905 11.74248 49.204713 11.74248 48.619636 
C 11.74248 48.03456 11.701589 47.473368 11.628814 47.059656 
C 11.556039 46.645944 11.45732 46.413491 11.3544 46.413491 
C 11.25148 46.413491 11.152761 46.645944 11.079986 47.059656 
C 11.007211 47.473368 10.96632 48.03456 10.96632 48.619636 
C 10.96632 49.204713 11.007211 49.765905 11.079986 50.179617 
C 11.152761 50.593328 11.25148 50.825782 11.3544 50.825782 
z
" clip-path="url(#pfebbbd82a1)" style="fill: #306998; stroke: #306998; stroke-linejoin: miter"/>
   </g>
   <g id="patch_10">
    <path d="M 11.3544 61.856509 
C 11.45732 61.856509 11.556039 61.624056 11.628814 61.210344 
C 11.701589 60.796632 11.74248 60.23544 11.74248 59.650364 
C 11.74248 59.065287 11.701589 58.504095 11.628814 58.090383 
C 11.556039 57.676672 11.45732 57.444218 11.3544 57.444218 
C 11.25148 57.444218 11.152761 57.676672 11.079986 58.090383 
C 11.007211 58.504095 10.96632 59.065287 10.96632 59.650364 
C 10.96632 60.23544 11.007211 60.796632 11.079986 61.210344 
C 11.152761 61.624056 11.25148 61.856509 11.3544 61.856509 
z
" clip-path="url(#pfebbbd82a1)" style="fill: #264de4; stroke: #264de4; stroke-linejoin: miter"/>
   </g>
   <g id="patch_11">
    <path d="M 11.3544 72.887236 
C 11.45732 72.887236 11.556039 72.654783 11.628814 72.241071 
C 11.701589 71.82736 11.74248 71.266168 11.74248 70.681091 
C 11.74248 70.096014 11.701589 69.534822 11.628814 69.12111 
C 11.556039 68.707399 11.45732 68.474945 11.3544 68.474945 
C 11.25148 68.474945 11.152761 68.707399 11.079986 69.12111 
C 11.007211 69.534822 10.96632 70.096014 10.96632 70.681091 
C 10.96632 71.266168 11.007211 71.82736 11.079986 72.241071 
C 11.152761 72.654783 11.25148 72.887236 11.3544 72.887236 
z
" clip-path="url(#pfebbbd82a1)" style="fill: #e34c26; stroke: #e34c26; stroke-linejoin: miter"/>
   </g>
   <g id="patch_12">
    <path d="M 11.3544 83.917964 
C 11.45732 83.917964 11.556039 83.68551 11.628814 83.271799 
C 11.701589 82.858087 11.74248 82.296895 11.74248 81.711818 
C 11.74248 81.126742 11.701589 80.565549 11.628814 80.151838 
C 11.556039 79.738126 11.45732 79.505673 11.3544 79.505673 
C 11.25148 79.505673 11.152761 79.738126 11.079986 80.151838 
C 11.007211 80.565549 10.96632 81.126742 10.96632 81.711818 
C 10.96632 82.296895 11.007211 82.858087 11.079986 83.271799 
C 11.152761 83.68551 11.25148 83.917964 11.3544 83.917964 
z
" clip-path="url(#pfebbbd82a1)" style="fill: #f7df1e; stroke: #f7df1e; stroke-linejoin: miter"/>
   </g>
   <g id="patch_13">
    <path d="M 11.3544 94.948691 
C 11.45732 94.948691 11.556039 94.716238 11.628814 94.302526 
C 11.701589 93.888814 11.74248 93.327622 11.74248 92.742545 
C 11.74248 92.157469 11.701589 91.596277 11.628814 91.182565 
C 11.556039 90.768853 11.45732 90.5364 11.3544 90.5364 
C 11.25148 90.5364 11.152761 90.768853 11.079986 91.182565 
C 11.007211 91.596277 10.96632 92.157469 10.96632 92.742545 
C 10.96632 93.327622 11.007211 93.888814 11.079986 94.302526 
C 11.152761 94.716238 11.25148 94.948691 11.3544 94.948691 
z
" clip-path="url(#pfebbbd82a1)" style="fill: #003b57; stroke: #003b57; stroke-linejoin: miter"/>
   </g>
   <g id="patch_14">
    <path d="M 11.3544 105.979418 
C 11.45732 105.979418 11.556039 105.746965 11.628814 105.333253 
C 11.701589 104.919541 11.74248 104.358349 11.74248 103.773273 
C 11.74248 103.188196 11.701589 102.627004 11.628814 102.213292 
C 11.556039 101.799581 11.45732 101.567127 11.3544 101.567127 
C 11.25148 101.567127 11.152761 101.799581 11.079986 102.213292 
C 11.007211 102.627004 10.96632 103.188196 10.96632 103.773273 
C 10.96632 104.358349 11.007211 104.919541 11.079986 105.333253 
C 11.152761 105.746965 11.25148 105.979418 11.3544 105.979418 
z
" clip-path="url(#pfebbbd82a1)" style="fill: #00979d; stroke: #00979d; stroke-linejoin: miter"/>
   </g>
   <g id="patch_15">
    <path d="M 11.3544 117.010145 
C 11.45732 117.010145 11.556039 116.777692 11.628814 116.36398 
C 11.701589 115.950269 11.74248 115.389077 11.74248 114.804 
C 11.74248 114.218923 11.701589 113.657731 11.628814 113.24402 
C 11.556039 112.830308 11.45732 112.597855 11.3544 112.597855 
C 11.25148 112.597855 11.152761 112.830308 11.079986 113.24402 
C 11.007211 113.657731 10.96632 114.218923 10.96632 114.804 
C 10.96632 115.389077 11.007211 115.950269 11.079986 116.36398 
C 11.152761 116.777692 11.25148 117.010145 11.3544 117.010145 
z
" clip-path="url(#pfebbbd82a1)" style="fill: #00758f; stroke: #00758f; stroke-linejoin: miter"/>
   </g>
   <g id="text_1">
    <!-- Python 22.6% -->
    <g style="fill: #ffffff" transform="translate(12.01968 51.884011) scale(0.12 -0.12)">
     <defs>
      <path id="DejaVuSans-Bold-50" d="M 588 4666 
L 2584 4666 
Q 3475 4666 3951 4270 
Q 4428 3875 4428 3144 
Q 4428 2409 3951 2014 
Q 3475 1619 2584 1619 
L 1791 1619 
L 1791 0 
L 588 0 
L 588 4666 
z
M 1791 3794 
L 1791 2491 
L 2456 2491 
Q 2806 2491 2997 2661 
Q 3188 2831 3188 3144 
Q 3188 3456 2997 3625 
Q 2806 3794 2456 3794 
L 1791 3794 
z
" transform="scale(0.015625)"/>
      <path id="DejaVuSans-Bold-79" d="M 78 3500 
L 1197 3500 
L 2138 1125 
L 2938 3500 
L 4056 3500 
L 2584 -331 
Q 2363 -916 2067 -1148 
Q 1772 -1381 1288 -1381 
L 641 -1381 
L 641 -647 
L 991 -647 
Q 1275 -647 1404 -556 
Q 1534 -466 1606 -231 
L 1638 -134 
L 78 3500 
z
" transform="scale(0.015625)"/>
      <path id="DejaVuSans-Bold-74" d="M 1759 4494 
L 1759 3500 
L 2913 3500 
L 2913 2700 
L 1759 2700 
L 1759 1216 
Q 1759 972 1856 886 
Q 1953 800 2241 800 
L 2816 800 
L 2816 0 
L 1856 0 
Q 1194 0 917 276 
Q 641 553 641 1216 
L 641 2700 
L 84 2700 
L 84 3500 
L 641 3500 
L 641 4494 
L 1759 4494 
z
" transform="scale(0.015625)"/>
      <path id="DejaVuSans-Bold-68" d="M 4056 2131 
L 4056 0 
L 2931 0 
L 2931 347 
L 2931 1625 
Q 2931 2084 2911 2256 
Q 2891 2428 2841 2509 
Q 2775 2619 2662 2680 
Q 2550 2741 2406 2741 
Q 2056 2741 1856 2470 
Q 1656 2200 1656 1722 
L 1656 0 
L 538 0 
L 538 4863 
L 1656 4863 
L 1656 2988 
Q 1909 3294 2193 3439 
Q 2478 3584 2822 3584 
Q 3428 3584 3742 3212 
Q 4056 2841 4056 2131 
z
" transform="scale(0.015625)"/>
      <path id="DejaVuSans-Bold-6f" d="M 2203 2784 
Q 1831 2784 1636 2517 
Q 1441 2250 1441 1747 
Q 1441 1244 1636 976 
Q 1831 709 2203 709 
Q 2569 709 2762 976 
Q 2956 1244 2956 1747 
Q 2956 2250 2762 2517 
Q 2569 2784 2203 2784 
z
M 2203 3584 
Q 3106 3584 3614 3096 
Q 4122 2609 4122 1747 
Q 4122 884 3614 396 
Q 3106 -91 2203 -91 
Q 1297 -91 786 396 
Q 275 884 275 1747 
Q 275 2609 786 3096 
Q 1297 3584 2203 3584 
z
" transform="scale(0.015625)"/>
      <path id="DejaVuSans-Bold-6e" d="M 4056 2131 
L 4056 0 
L 2931 0 
L 2931 347 
L 2931 1631 
Q 2931 2084 2911 2256 
Q 2891 2428 2841 2509 
Q 2775 2619 2662 2680 
Q 2550 2741 2406 2741 
Q 2056 2741 1856 2470 
Q 1656 2200 1656 1722 
L 1656 0 
L 538 0 
L 538 3500 
L 1656 3500 
L 1656 2988 
Q 1909 3294 2193 3439 
Q 2478 3584 2822 3584 
Q 3428 3584 3742 3212 
Q 4056 2841 4056 2131 
z
" transform="scale(0.015625)"/>
      <path id="DejaVuSans-Bold-20" transform="scale(0.015625)"/>
      <path id="DejaVuSans-Bold-32" d="M 1844 884 
L 3897 884 
L 3897 0 
L 506 0 
L 506 884 
L 2209 2388 
Q 2438 2594 2547 2791 
Q 2656 2988 2656 3200 
Q 2656 3528 2436 3728 
Q 2216 3928 1850 3928 
Q 1569 3928 1234 3808 
Q 900 3688 519 3450 
L 519 4475 
Q 925 4609 1322 4679 
Q 1719 4750 2100 4750 
Q 2938 4750 3402 4381 
Q 3866 4013 3866 3353 
Q 3866 2972 3669 2642 
Q 3472 2313 2841 1759 
L 1844 884 
z
" transform="scale(0.015625)"/>
      <path id="DejaVuSans-Bold-2e" d="M 653 1209 
L 1778 1209 
L 1778 0 
L 653 0 
L 653 1209 
z
" transform="scale(0.015625)"/>
      <path id="DejaVuSans-Bold-36" d="M 2316 2303 
Q 2000 2303 1842 2098 
Q 1684 1894 1684 1484 
Q 1684 1075 1842 870 
Q 2000 666 2316 666 
Q 2634 666 2792 870 
Q 2950 1075 2950 1484 
Q 2950 1894 2792 2098 
Q 2634 2303 2316 2303 
z
M 3803 4544 
L 3803 3681 
Q 3506 3822 3243 3889 
Q 2981 3956 2731 3956 
Q 2194 3956 1894 3657 
Q 1594 3359 1544 2772 
Q 1750 2925 1990 3001 
Q 2231 3078 2516 3078 
Q 3231 3078 3670 2659 
Q 4109 2241 4109 1563 
Q 4109 813 3618 361 
Q 3128 -91 2303 -91 
Q 1394 -91 895 523 
Q 397 1138 397 2266 
Q 397 3422 980 4083 
Q 1563 4744 2578 4744 
Q 2900 4744 3203 4694 
Q 3506 4644 3803 4544 
z
" transform="scale(0.015625)"/>
      <path id="DejaVuSans-Bold-25" d="M 4959 1925 
Q 4738 1925 4616 1733 
Q 4494 1541 4494 1184 
Q 4494 825 4614 633 
Q 4734 441 4959 441 
Q 5184 441 5303 633 
Q 5422 825 5422 1184 
Q 5422 1541 5301 1733 
Q 5181 1925 4959 1925 
z
M 4959 2450 
Q 5541 2450 5875 2112 
Q 6209 1775 6209 1184 
Q 6209 594 5875 251 
Q 5541 -91 4959 -91 
Q 4378 -91 4042 251 
Q 3706 594 3706 1184 
Q 3706 1772 4042 2111 
Q 4378 2450 4959 2450 
z
M 2094 -91 
L 1403 -91 
L 4319 4750 
L 5013 4750 
L 2094 -91 
z
M 1453 4750 
Q 2034 4750 2367 4411 
Q 2700 4072 2700 3481 
Q 2700 2891 2367 2550 
Q 2034 2209 1453 2209 
Q 872 2209 539 2550 
Q 206 2891 206 3481 
Q 206 4072 539 4411 
Q 872 4750 1453 4750 
z
M 1453 4225 
Q 1228 4225 1106 4031 
Q 984 3838 984 3481 
Q 984 3122 1106 2926 
Q 1228 2731 1453 2731 
Q 1678 2731 1798 2926 
Q 1919 3122 1919 3481 
Q 1919 3838 1797 4031 
Q 1675 4225 1453 4225 
z
" transform="scale(0.015625)"/>
     </defs>
     <use xlink:href="#DejaVuSans-Bold-50"/>
     <use xlink:href="#DejaVuSans-Bold-79" transform="translate(75.166016 0)"/>
     <use xlink:href="#DejaVuSans-Bold-74" transform="translate(140.351562 0)"/>
     <use xlink:href="#DejaVuSans-Bold-68" transform="translate(188.154297 0)"/>
     <use xlink:href="#DejaVuSans-Bold-6f" transform="translate(259.345703 0)"/>
     <use xlink:href="#DejaVuSans-Bold-6e" transform="translate(328.046875 0)"/>
     <use xlink:href="#DejaVuSans-Bold-20" transform="translate(399.238281 0)"/>
     <use xlink:href="#DejaVuSans-Bold-32" transform="translate(434.052734 0)"/>
     <use xlink:href="#DejaVuSans-Bold-32" transform="translate(503.632812 0)"/>
     <use xlink:href="#DejaVuSans-Bold-2e" transform="translate(573.212891 0)"/>
     <use xlink:href="#DejaVuSans-Bold-36" transform="translate(611.201172 0)"/>
     <use xlink:href="#DejaVuSans-Bold-25" transform="translate(680.78125 0)"/>
    </g>
   </g>
   <g id="text_2">
    <!-- CSS 27.8% -->
    <g style="fill: #ffffff" transform="translate(12.01968 62.961614) scale(0.12 -0.12)">
     <defs>
      <path id="DejaVuSans-Bold-43" d="M 4288 256 
Q 3956 84 3597 -3 
Q 3238 -91 2847 -91 
Q 1681 -91 1000 561 
Q 319 1213 319 2328 
Q 319 3447 1000 4098 
Q 1681 4750 2847 4750 
Q 3238 4750 3597 4662 
Q 3956 4575 4288 4403 
L 4288 3438 
Q 3953 3666 3628 3772 
Q 3303 3878 2944 3878 
Q 2300 3878 1931 3465 
Q 1563 3053 1563 2328 
Q 1563 1606 1931 1193 
Q 2300 781 2944 781 
Q 3303 781 3628 887 
Q 3953 994 4288 1222 
L 4288 256 
z
" transform="scale(0.015625)"/>
      <path id="DejaVuSans-Bold-53" d="M 3834 4519 
L 3834 3531 
Q 3450 3703 3084 3790 
Q 2719 3878 2394 3878 
Q 1963 3878 1756 3759 
Q 1550 3641 1550 3391 
Q 1550 3203 1689 3098 
Q 1828 2994 2194 2919 
L 2706 2816 
Q 3484 2659 3812 2340 
Q 4141 2022 4141 1434 
Q 4141 663 3683 286 
Q 3225 -91 2284 -91 
Q 1841 -91 1394 -6 
Q 947 78 500 244 
L 500 1259 
Q 947 1022 1364 901 
Q 1781 781 2169 781 
Q 2563 781 2772 912 
Q 2981 1044 2981 1288 
Q 2981 1506 2839 1625 
Q 2697 1744 2272 1838 
L 1806 1941 
Q 1106 2091 782 2419 
Q 459 2747 459 3303 
Q 459 4000 909 4375 
Q 1359 4750 2203 4750 
Q 2588 4750 2994 4692 
Q 3400 4634 3834 4519 
z
" transform="scale(0.015625)"/>
      <path id="DejaVuSans-Bold-37" d="M 428 4666 
L 3944 4666 
L 3944 3988 
L 2125 0 
L 953 0 
L 2675 3781 
L 428 3781 
L 428 4666 
z
" transform="scale(0.015625)"/>
      <path id="DejaVuSans-Bold-38" d="M 2228 2088 
Q 1891 2088 1709 1903 
Q 1528 1719 1528 1375 
Q 1528 1031 1709 848 
Q 1891 666 2228 666 
Q 2563 666 2741 848 
Q 2919 1031 2919 1375 
Q 2919 1722 2741 1905 
Q 2563 2088 2228 2088 
z
M 1350 2484 
Q 925 2613 709 2878 
Q 494 3144 494 3541 
Q 494 4131 934 4440 
Q 1375 4750 2228 4750 
Q 3075 4750 3515 4442 
Q 3956 4134 3956 3541 
Q 3956 3144 3739 2878 
Q 3522 2613 3097 2484 
Q 3572 2353 3814 2058 
Q 4056 1763 4056 1313 
Q 4056 619 3595 264 
Q 3134 -91 2228 -91 
Q 1319 -91 855 264 
Q 391 619 391 1313 
Q 391 1763 633 2058 
Q 875 2353 1350 2484 
z
M 1631 3419 
Q 1631 3141 1786 2991 
Q 1941 2841 2228 2841 
Q 2509 2841 2662 2991 
Q 2816 3141 2816 3419 
Q 2816 3697 2662 3845 
Q 2509 3994 2228 3994 
Q 1941 3994 1786 3844 
Q 1631 3694 1631 3419 
z
" transform="scale(0.015625)"/>
     </defs>
     <use xlink:href="#DejaVuSans-Bold-43"/>
     <use xlink:href="#DejaVuSans-Bold-53" transform="translate(75.263672 0)"/>
     <use xlink:href="#DejaVuSans-Bold-53" transform="translate(142.785156 0)"/>
     <use xlink:href="#DejaVuSans-Bold-20" transform="translate(214.806641 0)"/>
     <use xlink:href="#DejaVuSans-Bold-32" transform="translate(249.621094 0)"/>
     <use xlink:href="#DejaVuSans-Bold-37" transform="translate(319.201172 0)"/>
     <use xlink:href="#DejaVuSans-Bold-2e" transform="translate(388.78125 0)"/>
     <use xlink:href="#DejaVuSans-Bold-38" transform="translate(426.769531 0)"/>
     <use xlink:href="#DejaVuSans-Bold-25" transform="translate(496.349609 0)"/>
    </g>
   </g>
   <g id="text_3">
    <!-- HTML 20.2% -->
    <g style="fill: #ffffff" transform="translate(12.01968 73.992341) scale(0.12 -0.12)">
     <defs>
      <path id="DejaVuSans-Bold-48" d="M 588 4666 
L 1791 4666 
L 1791 2888 
L 3566 2888 
L 3566 4666 
L 4769 4666 
L 4769 0 
L 3566 0 
L 3566 1978 
L 1791 1978 
L 1791 0 
L 588 0 
L 588 4666 
z
" transform="scale(0.015625)"/>
      <path id="DejaVuSans-Bold-54" d="M 31 4666 
L 4331 4666 
L 4331 3756 
L 2784 3756 
L 2784 0 
L 1581 0 
L 1581 3756 
L 31 3756 
L 31 4666 
z
" transform="scale(0.015625)"/>
      <path id="DejaVuSans-Bold-4d" d="M 588 4666 
L 2119 4666 
L 3181 2169 
L 4250 4666 
L 5778 4666 
L 5778 0 
L 4641 0 
L 4641 3413 
L 3566 897 
L 2803 897 
L 1728 3413 
L 1728 0 
L 588 0 
L 588 4666 
z
" transform="scale(0.015625)"/>
      <path id="DejaVuSans-Bold-4c" d="M 588 4666 
L 1791 4666 
L 1791 909 
L 3903 909 
L 3903 0 
L 588 0 
L 588 4666 
z
" transform="scale(0.015625)"/>
      <path id="DejaVuSans-Bold-30" d="M 2944 2338 
Q 2944 3213 2780 3570 
Q 2616 3928 2228 3928 
Q 1841 3928 1675 3570 
Q 1509 3213 1509 2338 
Q 1509 1453 1675 1090 
Q 1841 728 2228 728 
Q 2613 728 2778 1090 
Q 2944 1453 2944 2338 
z
M 4147 2328 
Q 4147 1169 3647 539 
Q 3147 -91 2228 -91 
Q 1306 -91 806 539 
Q 306 1169 306 2328 
Q 306 3491 806 4120 
Q 1306 4750 2228 4750 
Q 3147 4750 3647 4120 
Q 4147 3491 4147 2328 
z
" transform="scale(0.015625)"/>
     </defs>
     <use xlink:href="#DejaVuSans-Bold-48"/>
     <use xlink:href="#DejaVuSans-Bold-54" transform="translate(83.691406 0)"/>
     <use xlink:href="#DejaVuSans-Bold-4d" transform="translate(151.904297 0)"/>
     <use xlink:href="#DejaVuSans-Bold-4c" transform="translate(251.416016 0)"/>
     <use xlink:href="#DejaVuSans-Bold-20" transform="translate(315.136719 0)"/>
     <use xlink:href="#DejaVuSans-Bold-32" transform="translate(349.951172 0)"/>
     <use xlink:href="#DejaVuSans-Bold-30" transform="translate(419.53125 0)"/>
     <use xlink:href="#DejaVuSans-Bold-2e" transform="translate(489.111328 0)"/>
     <use xlink:href="#DejaVuSans-Bold-32" transform="translate(527.099609 0)"/>
     <use xlink:href="#DejaVuSans-Bold-25" transform="translate(596.679688 0)"/>
    </g>
   </g>
   <g id="text_4">
    <!-- JavaScript 29.4% -->
    <g style="fill: #ffffff" transform="translate(12.01968 85.023068) scale(0.12 -0.12)">
     <defs>
      <path id="DejaVuSans-Bold-4a" d="M 588 4666 
L 1791 4666 
L 1791 453 
Q 1791 -419 1317 -850 
Q 844 -1281 -116 -1281 
L -359 -1281 
L -359 -372 
L -172 -372 
Q 203 -372 395 -162 
Q 588 47 588 453 
L 588 4666 
z
" transform="scale(0.015625)"/>
      <path id="DejaVuSans-Bold-61" d="M 2106 1575 
Q 1756 1575 1579 1456 
Q 1403 1338 1403 1106 
Q 1403 894 1545 773 
Q 1688 653 1941 653 
Q 2256 653 2472 879 
Q 2688 1106 2688 1447 
L 2688 1575 
L 2106 1575 
z
M 3816 1997 
L 3816 0 
L 2688 0 
L 2688 519 
Q 2463 200 2181 54 
Q 1900 -91 1497 -91 
Q 953 -91 614 226 
Q 275 544 275 1050 
Q 275 1666 698 1953 
Q 1122 2241 2028 2241 
L 2688 2241 
L 2688 2328 
Q 2688 2594 2478 2717 
Q 2269 2841 1825 2841 
Q 1466 2841 1156 2769 
Q 847 2697 581 2553 
L 581 3406 
Q 941 3494 1303 3539 
Q 1666 3584 2028 3584 
Q 2975 3584 3395 3211 
Q 3816 2838 3816 1997 
z
" transform="scale(0.015625)"/>
      <path id="DejaVuSans-Bold-76" d="M 97 3500 
L 1216 3500 
L 2088 1081 
L 2956 3500 
L 4078 3500 
L 2700 0 
L 1472 0 
L 97 3500 
z
" transform="scale(0.015625)"/>
      <path id="DejaVuSans-Bold-63" d="M 3366 3391 
L 3366 2478 
Q 3138 2634 2908 2709 
Q 2678 2784 2431 2784 
Q 1963 2784 1702 2511 
Q 1441 2238 1441 1747 
Q 1441 1256 1702 982 
Q 1963 709 2431 709 
Q 2694 709 2930 787 
Q 3166 866 3366 1019 
L 3366 103 
Q 3103 6 2833 -42 
Q 2563 -91 2291 -91 
Q 1344 -91 809 395 
Q 275 881 275 1747 
Q 275 2613 809 3098 
Q 1344 3584 2291 3584 
Q 2566 3584 2833 3536 
Q 3100 3488 3366 3391 
z
" transform="scale(0.015625)"/>
      <path id="DejaVuSans-Bold-72" d="M 3138 2547 
Q 2991 2616 2845 2648 
Q 2700 2681 2553 2681 
Q 2122 2681 1889 2404 
Q 1656 2128 1656 1613 
L 1656 0 
L 538 0 
L 538 3500 
L 1656 3500 
L 1656 2925 
Q 1872 3269 2151 3426 
Q 2431 3584 2822 3584 
Q 2878 3584 2943 3579 
Q 3009 3575 3134 3559 
L 3138 2547 
z
" transform="scale(0.015625)"/>
      <path id="DejaVuSans-Bold-69" d="M 538 3500 
L 1656 3500 
L 1656 0 
L 538 0 
L 538 3500 
z
M 538 4863 
L 1656 4863 
L 1656 3950 
L 538 3950 
L 538 4863 
z
" transform="scale(0.015625)"/>
      <path id="DejaVuSans-Bold-70" d="M 1656 506 
L 1656 -1331 
L 538 -1331 
L 538 3500 
L 1656 3500 
L 1656 2988 
Q 1888 3294 2169 3439 
Q 2450 3584 2816 3584 
Q 3463 3584 3878 3070 
Q 4294 2556 4294 1747 
Q 4294 938 3878 423 
Q 3463 -91 2816 -91 
Q 2450 -91 2169 54 
Q 1888 200 1656 506 
z
M 2400 2772 
Q 2041 2772 1848 2508 
Q 1656 2244 1656 1747 
Q 1656 1250 1848 986 
Q 2041 722 2400 722 
Q 2759 722 2948 984 
Q 3138 1247 3138 1747 
Q 3138 2247 2948 2509 
Q 2759 2772 2400 2772 
z
" transform="scale(0.015625)"/>
      <path id="DejaVuSans-Bold-39" d="M 641 103 
L 641 966 
Q 928 831 1190 764 
Q 1453 697 1709 697 
Q 2247 697 2547 995 
Q 2847 1294 2900 1881 
Q 2688 1725 2447 1647 
Q 2206 1569 1925 1569 
Q 1209 1569 770 1986 
Q 331 2403 331 3084 
Q 331 3838 820 4291 
Q 1309 4744 2131 4744 
Q 3044 4744 3544 4128 
Q 4044 3513 4044 2388 
Q 4044 1231 3459 570 
Q 2875 -91 1856 -91 
Q 1528 -91 1228 -42 
Q 928 6 641 103 
z
M 2125 2350 
Q 2441 2350 2600 2554 
Q 2759 2759 2759 3169 
Q 2759 3575 2600 3781 
Q 2441 3988 2125 3988 
Q 1809 3988 1650 3781 
Q 1491 3575 1491 3169 
Q 1491 2759 1650 2554 
Q 1809 2350 2125 2350 
z
" transform="scale(0.015625)"/>
      <path id="DejaVuSans-Bold-34" d="M 2356 3675 
L 1038 1722 
L 2356 1722 
L 2356 3675 
z
M 2156 4666 
L 3494 4666 
L 3494 1722 
L 4159 1722 
L 4159 850 
L 3494 850 
L 3494 0 
L 2356 0 
L 2356 850 
L 288 850 
L 288 1881 
L 2156 4666 
z
" transform="scale(0.015625)"/>
     </defs>
     <use xlink:href="#DejaVuSans-Bold-4a"/>
     <use xlink:href="#DejaVuSans-Bold-61" transform="translate(37.207031 0)"/>
     <use xlink:href="#DejaVuSans-Bold-76" transform="translate(104.6875 0)"/>
     <use xlink:href="#DejaVuSans-Bold-61" transform="translate(169.873047 0)"/>
     <use xlink:href="#DejaVuSans-Bold-53" transform="translate(237.353516 0)"/>
     <use xlink:href="#DejaVuSans-Bold-63" transform="translate(309.375 0)"/>
     <use xlink:href="#DejaVuSans-Bold-72" transform="translate(368.652344 0)"/>
     <use xlink:href="#DejaVuSans-Bold-69" transform="translate(417.96875 0)"/>
     <use xlink:href="#DejaVuSans-Bold-70" transform="translate(452.246094 0)"/>
     <use xlink:href="#DejaVuSans-Bold-74" transform="translate(523.828125 0)"/>
     <use xlink:href="#DejaVuSans-Bold-20" transform="translate(571.630859 0)"/>
     <use xlink:href="#DejaVuSans-Bold-32" transform="translate(606.445312 0)"/>
     <use xlink:href="#DejaVuSans-Bold-39" transform="translate(676.025391 0)"/>
     <use xlink:href="#DejaVuSans-Bold-2e" transform="translate(745.605469 0)"/>
     <use xlink:href="#DejaVuSans-Bold-34" transform="translate(783.59375 0)"/>
     <use xlink:href="#DejaVuSans-Bold-25" transform="translate(853.173828 0)"/>
    </g>
   </g>
   <g id="text_5">
    <!-- SQLite 0.0% -->
    <g style="fill: #ffffff" transform="translate(12.01968 96.053795) scale(0.12 -0.12)">
     <defs>
      <path id="DejaVuSans-Bold-51" d="M 2847 -84 
L 2753 -84 
Q 1600 -84 959 553 
Q 319 1191 319 2328 
Q 319 3463 958 4106 
Q 1597 4750 2719 4750 
Q 3853 4750 4486 4112 
Q 5119 3475 5119 2328 
Q 5119 1541 4783 972 
Q 4447 403 3816 116 
L 4756 -934 
L 3609 -934 
L 2847 -84 
z
M 2719 3878 
Q 2169 3878 1866 3472 
Q 1563 3066 1563 2328 
Q 1563 1578 1859 1179 
Q 2156 781 2719 781 
Q 3272 781 3575 1187 
Q 3878 1594 3878 2328 
Q 3878 3066 3575 3472 
Q 3272 3878 2719 3878 
z
" transform="scale(0.015625)"/>
      <path id="DejaVuSans-Bold-65" d="M 4031 1759 
L 4031 1441 
L 1416 1441 
Q 1456 1047 1700 850 
Q 1944 653 2381 653 
Q 2734 653 3104 758 
Q 3475 863 3866 1075 
L 3866 213 
Q 3469 63 3072 -14 
Q 2675 -91 2278 -91 
Q 1328 -91 801 392 
Q 275 875 275 1747 
Q 275 2603 792 3093 
Q 1309 3584 2216 3584 
Q 3041 3584 3536 3087 
Q 4031 2591 4031 1759 
z
M 2881 2131 
Q 2881 2450 2695 2645 
Q 2509 2841 2209 2841 
Q 1884 2841 1681 2658 
Q 1478 2475 1428 2131 
L 2881 2131 
z
" transform="scale(0.015625)"/>
     </defs>
     <use xlink:href="#DejaVuSans-Bold-53"/>
     <use xlink:href="#DejaVuSans-Bold-51" transform="translate(72.021484 0)"/>
     <use xlink:href="#DejaVuSans-Bold-4c" transform="translate(157.03125 0)"/>
     <use xlink:href="#DejaVuSans-Bold-69" transform="translate(220.751953 0)"/>
     <use xlink:href="#DejaVuSans-Bold-74" transform="translate(255.029297 0)"/>
     <use xlink:href="#DejaVuSans-Bold-65" transform="translate(302.832031 0)"/>
     <use xlink:href="#DejaVuSans-Bold-20" transform="translate(370.654297 0)"/>
     <use xlink:href="#DejaVuSans-Bold-30" transform="translate(405.46875 0)"/>
     <use xlink:href="#DejaVuSans-Bold-2e" transform="translate(475.048828 0)"/>
     <use xlink:href="#DejaVuSans-Bold-30" transform="translate(513.037109 0)"/>
     <use xlink:href="#DejaVuSans-Bold-25" transform="translate(582.617188 0)"/>
    </g>
   </g>
   <g id="text_6">
    <!-- Arduino 0.0% -->
    <g style="fill: #ffffff" transform="translate(12.01968 107.084523) scale(0.12 -0.12)">
     <defs>
      <path id="DejaVuSans-Bold-41" d="M 3419 850 
L 1538 850 
L 1241 0 
L 31 0 
L 1759 4666 
L 3194 4666 
L 4922 0 
L 3713 0 
L 3419 850 
z
M 1838 1716 
L 3116 1716 
L 2478 3572 
L 1838 1716 
z
" transform="scale(0.015625)"/>
      <path id="DejaVuSans-Bold-64" d="M 2919 2988 
L 2919 4863 
L 4044 4863 
L 4044 0 
L 2919 0 
L 2919 506 
Q 2688 197 2409 53 
Q 2131 -91 1766 -91 
Q 1119 -91 703 423 
Q 288 938 288 1747 
Q 288 2556 703 3070 
Q 1119 3584 1766 3584 
Q 2128 3584 2408 3439 
Q 2688 3294 2919 2988 
z
M 2181 722 
Q 2541 722 2730 984 
Q 2919 1247 2919 1747 
Q 2919 2247 2730 2509 
Q 2541 2772 2181 2772 
Q 1825 2772 1636 2509 
Q 1447 2247 1447 1747 
Q 1447 1247 1636 984 
Q 1825 722 2181 722 
z
" transform="scale(0.015625)"/>
      <path id="DejaVuSans-Bold-75" d="M 500 1363 
L 500 3500 
L 1625 3500 
L 1625 3150 
Q 1625 2866 1622 2436 
Q 1619 2006 1619 1863 
Q 1619 1441 1641 1255 
Q 1663 1069 1716 984 
Q 1784 875 1895 815 
Q 2006 756 2150 756 
Q 2500 756 2700 1025 
Q 2900 1294 2900 1772 
L 2900 3500 
L 4019 3500 
L 4019 0 
L 2900 0 
L 2900 506 
Q 2647 200 2364 54 
Q 2081 -91 1741 -91 
Q 1134 -91 817 281 
Q 500 653 500 1363 
z
" transform="scale(0.015625)"/>
     </defs>
     <use xlink:href="#DejaVuSans-Bold-41"/>
     <use xlink:href="#DejaVuSans-Bold-72" transform="translate(77.392578 0)"/>
     <use xlink:href="#DejaVuSans-Bold-64" transform="translate(126.708984 0)"/>
     <use xlink:href="#DejaVuSans-Bold-75" transform="translate(198.291016 0)"/>
     <use xlink:href="#DejaVuSans-Bold-69" transform="translate(269.482422 0)"/>
     <use xlink:href="#DejaVuSans-Bold-6e" transform="translate(303.759766 0)"/>
     <use xlink:href="#DejaVuSans-Bold-6f" transform="translate(374.951172 0)"/>
     <use xlink:href="#DejaVuSans-Bold-20" transform="translate(443.652344 0)"/>
     <use xlink:href="#DejaVuSans-Bold-30" transform="translate(478.466797 0)"/>
     <use xlink:href="#DejaVuSans-Bold-2e" transform="translate(548.046875 0)"/>
     <use xlink:href="#DejaVuSans-Bold-30" transform="translate(586.035156 0)"/>
     <use xlink:href="#DejaVuSans-Bold-25" transform="translate(655.615234 0)"/>
    </g>
   </g>
   <g id="text_7">
    <!-- MySQL 0.0% -->
    <g style="fill: #ffffff" transform="translate(12.01968 118.0215) scale(0.12 -0.12)">
     <use xlink:href="#DejaVuSans-Bold-4d"/>
     <use xlink:href="#DejaVuSans-Bold-79" transform="translate(99.511719 0)"/>
     <use xlink:href="#DejaVuSans-Bold-53" transform="translate(164.697266 0)"/>
     <use xlink:href="#DejaVuSans-Bold-51" transform="translate(236.71875 0)"/>
     <use xlink:href="#DejaVuSans-Bold-4c" transform="translate(321.728516 0)"/>
     <use xlink:href="#DejaVuSans-Bold-20" transform="translate(385.449219 0)"/>
     <use xlink:href="#DejaVuSans-Bold-30" transform="translate(420.263672 0)"/>
     <use xlink:href="#DejaVuSans-Bold-2e" transform="translate(489.84375 0)"/>
     <use xlink:href="#DejaVuSans-Bold-30" transform="translate(527.832031 0)"/>
     <use xlink:href="#DejaVuSans-Bold-25" transform="translate(597.412109 0)"/>
    </g>
   </g>
  </g>
 </g>
 <defs>
  <clipPath id="pfebbbd82a1">
   <rect x="10.8" y="10.8" width="554.4" height="69.336"/>
  </clipPath>
 </defs>
</svg>
