<?xml version="1.0" encoding="utf-8" standalone="no"?>
<!DOCTYPE svg PUBLIC "-//W3C//DTD SVG 1.1//EN"
  "http://www.w3.org/Graphics/SVG/1.1/DTD/svg11.dtd">
<svg xmlns:xlink="http://www.w3.org/1999/xlink" width="720pt" height="216pt" viewBox="0 0 720 216" xmlns="http://www.w3.org/2000/svg" version="1.1">
 <metadata>
  <rdf:RDF xmlns:dc="http://purl.org/dc/elements/1.1/" xmlns:cc="http://creativecommons.org/ns#" xmlns:rdf="http://www.w3.org/1999/02/22-rdf-syntax-ns#">
   <cc:Work>
    <dc:type rdf:resource="http://purl.org/dc/dcmitype/StillImage"/>
    <dc:date>2025-12-14T01:20:00.219382</dc:date>
    <dc:format>image/svg+xml</dc:format>
    <dc:creator>
     <cc:Agent>
      <dc:title>Matplotlib v3.10.8, https://matplotlib.org/</dc:title>
     </cc:Agent>
    </dc:creator>
   </cc:Work>
  </rdf:RDF>
 </metadata>
 <defs>
  <style type="text/css">*{stroke-linejoin: round; stroke-linecap: butt}</style>
 </defs>
 <g id="figure_1">
  <g id="patch_1">
   <path d="M 0 216 
L 720 216 
L 720 0 
L 0 0 
L 0 216 
z
" style="fill: none"/>
  </g>
  <g id="axes_1">
   <g id="patch_2">
    <path d="M 10.8 57.200256 
L 174.36528 57.200256 
L 174.36528 30.685824 
L 10.8 30.685824 
z
" clip-path="url(#p5420b355f6)" style="fill: #306998"/>
   </g>
   <g id="patch_3">
    <path d="M 174.36528 57.200256 
L 304.19784 57.200256 
L 304.19784 30.685824 
L 174.36528 30.685824 
z
" clip-path="url(#p5420b355f6)" style="fill: #e34c26"/>
   </g>
   <g id="patch_4">
    <path d="M 304.19784 57.200256 
L 510.71472 57.200256 
L 510.71472 30.685824 
L 304.19784 30.685824 
z
" clip-path="url(#p5420b355f6)" style="fill: #264de4"/>
   </g>
   <g id="patch_5">
    <path d="M 510.71472 57.200256 
L 709.13016 57.200256 
L 709.13016 30.685824 
L 510.71472 30.685824 
z
" clip-path="url(#p5420b355f6)" style="fill: #f7df1e"/>
   </g>
   <g id="patch_6">
    <path d="M 709.13016 57.200256 
L 709.13016 57.200256 
L 709.13016 30.685824 
L 709.13016 30.685824 
z
" clip-path="url(#p5420b355f6)" style="fill: #00979d"/>
   </g>
   <g id="patch_7">
    <path d="M 709.13016 57.200256 
L 709.13016 57.200256 
L 709.13016 30.685824 
L 709.13016 30.685824 
z
" clip-path="url(#p5420b355f6)" style="fill: #003b57"/>
   </g>
   <g id="patch_8">
    <path d="M 709.13016 57.200256 
L 709.13016 57.200256 
L 709.13016 30.685824 
L 709.13016 30.685824 
z
" clip-path="url(#p5420b355f6)" style="fill: #00758f"/>
   </g>
   <g id="patch_9">
    <path d="M 11.4984 120.172032 
C 11.776227 120.172032 12.042712 119.124384 12.239165 117.25982 
C 12.435618 115.395257 12.546 112.866011 12.546 110.22912 
C 12.546 107.592229 12.435618 105.062983 12.239165 103.19842 
C 12.042712 101.333856 11.776227 100.286208 11.4984 100.286208 
C 11.220573 100.286208 10.954088 101.333856 10.757635 103.19842 
C 10.561182 105.062983 10.4508 107.592229 10.4508 110.22912 
C 10.4508 112.866011 10.561182 115.395257 10.757635 117.25982 
C 10.954088 119.124384 11.220573 120.172032 11.4984 120.172032 
z
" clip-path="url(#p5420b355f6)" style="fill: #264de4; stroke: #ffffff; stroke-linejoin: miter"/>
   </g>
   <g id="patch_10">
    <path d="M 11.4984 150.000768 
C 11.776227 150.000768 12.042712 148.95312 12.239165 147.088556 
C 12.435618 145.223993 12.546 142.694747 12.546 140.057856 
C 12.546 137.420965 12.435618 134.891719 12.239165 133.027156 
C 12.042712 131.162592 11.776227 130.114944 11.4984 130.114944 
C 11.220573 130.114944 10.954088 131.162592 10.757635 133.027156 
C 10.561182 134.891719 10.4508 137.420965 10.4508 140.057856 
C 10.4508 142.694747 10.561182 145.223993 10.757635 147.088556 
C 10.954088 148.95312 11.220573 150.000768 11.4984 150.000768 
z
" clip-path="url(#p5420b355f6)" style="fill: #f7df1e; stroke: #ffffff; stroke-linejoin: miter"/>
   </g>
   <g id="patch_11">
    <path d="M 11.4984 179.829504 
C 11.776227 179.829504 12.042712 178.781856 12.239165 176.917292 
C 12.435618 175.052729 12.546 172.523483 12.546 169.886592 
C 12.546 167.249701 12.435618 164.720455 12.239165 162.855892 
C 12.042712 160.991328 11.776227 159.94368 11.4984 159.94368 
C 11.220573 159.94368 10.954088 160.991328 10.757635 162.855892 
C 10.561182 164.720455 10.4508 167.249701 10.4508 169.886592 
C 10.4508 172.523483 10.561182 175.052729 10.757635 176.917292 
C 10.954088 178.781856 11.220573 179.829504 11.4984 179.829504 
z
" clip-path="url(#p5420b355f6)" style="fill: #306998; stroke: #ffffff; stroke-linejoin: miter"/>
   </g>
   <g id="patch_12">
    <path d="M 11.4984 209.65824 
C 11.776227 209.65824 12.042712 208.610592 12.239165 206.746028 
C 12.435618 204.881465 12.546 202.352219 12.546 199.715328 
C 12.546 197.078437 12.435618 194.549191 12.239165 192.684628 
C 12.042712 190.820064 11.776227 189.772416 11.4984 189.772416 
C 11.220573 189.772416 10.954088 190.820064 10.757635 192.684628 
C 10.561182 194.549191 10.4508 197.078437 10.4508 199.715328 
C 10.4508 202.352219 10.561182 204.881465 10.757635 206.746028 
C 10.954088 208.610592 11.220573 209.65824 11.4984 209.65824 
z
" clip-path="url(#p5420b355f6)" style="fill: #e34c26; stroke: #ffffff; stroke-linejoin: miter"/>
   </g>
   <g id="text_1">
    <!-- CSS29.57% -->
    <g style="fill: #ffffff" transform="translate(13.9428 113.264432) scale(0.11 -0.11)">
     <defs>
      <path id="DejaVuSans-Bold-43" d="M 4288 256 
Q 3956 84 3597 -3 
Q 3238 -91 2847 -91 
Q 1681 -91 1000 561 
Q 319 1213 319 2328 
Q 319 3447 1000 4098 
Q 1681 4750 2847 4750 
Q 3238 4750 3597 4662 
Q 3956 4575 4288 4403 
L 4288 3438 
Q 3953 3666 3628 3772 
Q 3303 3878 2944 3878 
Q 2300 3878 1931 3465 
Q 1563 3053 1563 2328 
Q 1563 1606 1931 1193 
Q 2300 781 2944 781 
Q 3303 781 3628 887 
Q 3953 994 4288 1222 
L 4288 256 
z
" transform="scale(0.015625)"/>
      <path id="DejaVuSans-Bold-53" d="M 3834 4519 
L 3834 3531 
Q 3450 3703 3084 3790 
Q 2719 3878 2394 3878 
Q 1963 3878 1756 3759 
Q 1550 3641 1550 3391 
Q 1550 3203 1689 3098 
Q 1828 2994 2194 2919 
L 2706 2816 
Q 3484 2659 3812 2340 
Q 4141 2022 4141 1434 
Q 4141 663 3683 286 
Q 3225 -91 2284 -91 
Q 1841 -91 1394 -6 
Q 947 78 500 244 
L 500 1259 
Q 947 1022 1364 901 
Q 1781 781 2169 781 
Q 2563 781 2772 912 
Q 2981 1044 2981 1288 
Q 2981 1506 2839 1625 
Q 2697 1744 2272 1838 
L 1806 1941 
Q 1106 2091 782 2419 
Q 459 2747 459 3303 
Q 459 4000 909 4375 
Q 1359 4750 2203 4750 
Q 2588 4750 2994 4692 
Q 3400 4634 3834 4519 
z
" transform="scale(0.015625)"/>
      <path id="DejaVuSans-Bold-32" d="M 1844 884 
L 3897 884 
L 3897 0 
L 506 0 
L 506 884 
L 2209 2388 
Q 2438 2594 2547 2791 
Q 2656 2988 2656 3200 
Q 2656 3528 2436 3728 
Q 2216 3928 1850 3928 
Q 1569 3928 1234 3808 
Q 900 3688 519 3450 
L 519 4475 
Q 925 4609 1322 4679 
Q 1719 4750 2100 4750 
Q 2938 4750 3402 4381 
Q 3866 4013 3866 3353 
Q 3866 2972 3669 2642 
Q 3472 2313 2841 1759 
L 1844 884 
z
" transform="scale(0.015625)"/>
      <path id="DejaVuSans-Bold-39" d="M 641 103 
L 641 966 
Q 928 831 1190 764 
Q 1453 697 1709 697 
Q 2247 697 2547 995 
Q 2847 1294 2900 1881 
Q 2688 1725 2447 1647 
Q 2206 1569 1925 1569 
Q 1209 1569 770 1986 
Q 331 2403 331 3084 
Q 331 3838 820 4291 
Q 1309 4744 2131 4744 
Q 3044 4744 3544 4128 
Q 4044 3513 4044 2388 
Q 4044 1231 3459 570 
Q 2875 -91 1856 -91 
Q 1528 -91 1228 -42 
Q 928 6 641 103 
z
M 2125 2350 
Q 2441 2350 2600 2554 
Q 2759 2759 2759 3169 
Q 2759 3575 2600 3781 
Q 2441 3988 2125 3988 
Q 1809 3988 1650 3781 
Q 1491 3575 1491 3169 
Q 1491 2759 1650 2554 
Q 1809 2350 2125 2350 
z
" transform="scale(0.015625)"/>
      <path id="DejaVuSans-Bold-2e" d="M 653 1209 
L 1778 1209 
L 1778 0 
L 653 0 
L 653 1209 
z
" transform="scale(0.015625)"/>
      <path id="DejaVuSans-Bold-35" d="M 678 4666 
L 3669 4666 
L 3669 3781 
L 1638 3781 
L 1638 3059 
Q 1775 3097 1914 3117 
Q 2053 3138 2203 3138 
Q 3056 3138 3531 2711 
Q 4006 2284 4006 1522 
Q 4006 766 3489 337 
Q 2972 -91 2053 -91 
Q 1656 -91 1267 -14 
Q 878 63 494 219 
L 494 1166 
Q 875 947 1217 837 
Q 1559 728 1863 728 
Q 2300 728 2551 942 
Q 2803 1156 2803 1522 
Q 2803 1891 2551 2103 
Q 2300 2316 1863 2316 
Q 1603 2316 1309 2248 
Q 1016 2181 678 2041 
L 678 4666 
z
" transform="scale(0.015625)"/>
      <path id="DejaVuSans-Bold-37" d="M 428 4666 
L 3944 4666 
L 3944 3988 
L 2125 0 
L 953 0 
L 2675 3781 
L 428 3781 
L 428 4666 
z
" transform="scale(0.015625)"/>
      <path id="DejaVuSans-Bold-25" d="M 4959 1925 
Q 4738 1925 4616 1733 
Q 4494 1541 4494 1184 
Q 4494 825 4614 633 
Q 4734 441 4959 441 
Q 5184 441 5303 633 
Q 5422 825 5422 1184 
Q 5422 1541 5301 1733 
Q 5181 1925 4959 1925 
z
M 4959 2450 
Q 5541 2450 5875 2112 
Q 6209 1775 6209 1184 
Q 6209 594 5875 251 
Q 5541 -91 4959 -91 
Q 4378 -91 4042 251 
Q 3706 594 3706 1184 
Q 3706 1772 4042 2111 
Q 4378 2450 4959 2450 
z
M 2094 -91 
L 1403 -91 
L 4319 4750 
L 5013 4750 
L 2094 -91 
z
M 1453 4750 
Q 2034 4750 2367 4411 
Q 2700 4072 2700 3481 
Q 2700 2891 2367 2550 
Q 2034 2209 1453 2209 
Q 872 2209 539 2550 
Q 206 2891 206 3481 
Q 206 4072 539 4411 
Q 872 4750 1453 4750 
z
M 1453 4225 
Q 1228 4225 1106 4031 
Q 984 3838 984 3481 
Q 984 3122 1106 2926 
Q 1228 2731 1453 2731 
Q 1678 2731 1798 2926 
Q 1919 3122 1919 3481 
Q 1919 3838 1797 4031 
Q 1675 4225 1453 4225 
z
" transform="scale(0.015625)"/>
     </defs>
     <use xlink:href="#DejaVuSans-Bold-43"/>
     <use xlink:href="#DejaVuSans-Bold-53" transform="translate(75.263672 0)"/>
     <use xlink:href="#DejaVuSans-Bold-53" transform="translate(142.785156 0)"/>
     <use xlink:href="#DejaVuSans-Bold-32" transform="translate(214.806641 0)"/>
     <use xlink:href="#DejaVuSans-Bold-39" transform="translate(284.386719 0)"/>
     <use xlink:href="#DejaVuSans-Bold-2e" transform="translate(353.966797 0)"/>
     <use xlink:href="#DejaVuSans-Bold-35" transform="translate(391.955078 0)"/>
     <use xlink:href="#DejaVuSans-Bold-37" transform="translate(461.535156 0)"/>
     <use xlink:href="#DejaVuSans-Bold-25" transform="translate(531.115234 0)"/>
    </g>
   </g>
   <g id="text_2">
    <!-- JavaScript28.41% -->
    <g style="fill: #ffffff" transform="translate(13.9428 143.093168) scale(0.11 -0.11)">
     <defs>
      <path id="DejaVuSans-Bold-4a" d="M 588 4666 
L 1791 4666 
L 1791 453 
Q 1791 -419 1317 -850 
Q 844 -1281 -116 -1281 
L -359 -1281 
L -359 -372 
L -172 -372 
Q 203 -372 395 -162 
Q 588 47 588 453 
L 588 4666 
z
" transform="scale(0.015625)"/>
      <path id="DejaVuSans-Bold-61" d="M 2106 1575 
Q 1756 1575 1579 1456 
Q 1403 1338 1403 1106 
Q 1403 894 1545 773 
Q 1688 653 1941 653 
Q 2256 653 2472 879 
Q 2688 1106 2688 1447 
L 2688 1575 
L 2106 1575 
z
M 3816 1997 
L 3816 0 
L 2688 0 
L 2688 519 
Q 2463 200 2181 54 
Q 1900 -91 1497 -91 
Q 953 -91 614 226 
Q 275 544 275 1050 
Q 275 1666 698 1953 
Q 1122 2241 2028 2241 
L 2688 2241 
L 2688 2328 
Q 2688 2594 2478 2717 
Q 2269 2841 1825 2841 
Q 1466 2841 1156 2769 
Q 847 2697 581 2553 
L 581 3406 
Q 941 3494 1303 3539 
Q 1666 3584 2028 3584 
Q 2975 3584 3395 3211 
Q 3816 2838 3816 1997 
z
" transform="scale(0.015625)"/>
      <path id="DejaVuSans-Bold-76" d="M 97 3500 
L 1216 3500 
L 2088 1081 
L 2956 3500 
L 4078 3500 
L 2700 0 
L 1472 0 
L 97 3500 
z
" transform="scale(0.015625)"/>
      <path id="DejaVuSans-Bold-63" d="M 3366 3391 
L 3366 2478 
Q 3138 2634 2908 2709 
Q 2678 2784 2431 2784 
Q 1963 2784 1702 2511 
Q 1441 2238 1441 1747 
Q 1441 1256 1702 982 
Q 1963 709 2431 709 
Q 2694 709 2930 787 
Q 3166 866 3366 1019 
L 3366 103 
Q 3103 6 2833 -42 
Q 2563 -91 2291 -91 
Q 1344 -91 809 395 
Q 275 881 275 1747 
Q 275 2613 809 3098 
Q 1344 3584 2291 3584 
Q 2566 3584 2833 3536 
Q 3100 3488 3366 3391 
z
" transform="scale(0.015625)"/>
      <path id="DejaVuSans-Bold-72" d="M 3138 2547 
Q 2991 2616 2845 2648 
Q 2700 2681 2553 2681 
Q 2122 2681 1889 2404 
Q 1656 2128 1656 1613 
L 1656 0 
L 538 0 
L 538 3500 
L 1656 3500 
L 1656 2925 
Q 1872 3269 2151 3426 
Q 2431 3584 2822 3584 
Q 2878 3584 2943 3579 
Q 3009 3575 3134 3559 
L 3138 2547 
z
" transform="scale(0.015625)"/>
      <path id="DejaVuSans-Bold-69" d="M 538 3500 
L 1656 3500 
L 1656 0 
L 538 0 
L 538 3500 
z
M 538 4863 
L 1656 4863 
L 1656 3950 
L 538 3950 
L 538 4863 
z
" transform="scale(0.015625)"/>
      <path id="DejaVuSans-Bold-70" d="M 1656 506 
L 1656 -1331 
L 538 -1331 
L 538 3500 
L 1656 3500 
L 1656 2988 
Q 1888 3294 2169 3439 
Q 2450 3584 2816 3584 
Q 3463 3584 3878 3070 
Q 4294 2556 4294 1747 
Q 4294 938 3878 423 
Q 3463 -91 2816 -91 
Q 2450 -91 2169 54 
Q 1888 200 1656 506 
z
M 2400 2772 
Q 2041 2772 1848 2508 
Q 1656 2244 1656 1747 
Q 1656 1250 1848 986 
Q 2041 722 2400 722 
Q 2759 722 2948 984 
Q 3138 1247 3138 1747 
Q 3138 2247 2948 2509 
Q 2759 2772 2400 2772 
z
" transform="scale(0.015625)"/>
      <path id="DejaVuSans-Bold-74" d="M 1759 4494 
L 1759 3500 
L 2913 3500 
L 2913 2700 
L 1759 2700 
L 1759 1216 
Q 1759 972 1856 886 
Q 1953 800 2241 800 
L 2816 800 
L 2816 0 
L 1856 0 
Q 1194 0 917 276 
Q 641 553 641 1216 
L 641 2700 
L 84 2700 
L 84 3500 
L 641 3500 
L 641 4494 
L 1759 4494 
z
" transform="scale(0.015625)"/>
      <path id="DejaVuSans-Bold-38" d="M 2228 2088 
Q 1891 2088 1709 1903 
Q 1528 1719 1528 1375 
Q 1528 1031 1709 848 
Q 1891 666 2228 666 
Q 2563 666 2741 848 
Q 2919 1031 2919 1375 
Q 2919 1722 2741 1905 
Q 2563 2088 2228 2088 
z
M 1350 2484 
Q 925 2613 709 2878 
Q 494 3144 494 3541 
Q 494 4131 934 4440 
Q 1375 4750 2228 4750 
Q 3075 4750 3515 4442 
Q 3956 4134 3956 3541 
Q 3956 3144 3739 2878 
Q 3522 2613 3097 2484 
Q 3572 2353 3814 2058 
Q 4056 1763 4056 1313 
Q 4056 619 3595 264 
Q 3134 -91 2228 -91 
Q 1319 -91 855 264 
Q 391 619 391 1313 
Q 391 1763 633 2058 
Q 875 2353 1350 2484 
z
M 1631 3419 
Q 1631 3141 1786 2991 
Q 1941 2841 2228 2841 
Q 2509 2841 2662 2991 
Q 2816 3141 2816 3419 
Q 2816 3697 2662 3845 
Q 2509 3994 2228 3994 
Q 1941 3994 1786 3844 
Q 1631 3694 1631 3419 
z
" transform="scale(0.015625)"/>
      <path id="DejaVuSans-Bold-34" d="M 2356 3675 
L 1038 1722 
L 2356 1722 
L 2356 3675 
z
M 2156 4666 
L 3494 4666 
L 3494 1722 
L 4159 1722 
L 4159 850 
L 3494 850 
L 3494 0 
L 2356 0 
L 2356 850 
L 288 850 
L 288 1881 
L 2156 4666 
z
" transform="scale(0.015625)"/>
      <path id="DejaVuSans-Bold-31" d="M 750 831 
L 1813 831 
L 1813 3847 
L 722 3622 
L 722 4441 
L 1806 4666 
L 2950 4666 
L 2950 831 
L 4013 831 
L 4013 0 
L 750 0 
L 750 831 
z
" transform="scale(0.015625)"/>
     </defs>
     <use xlink:href="#DejaVuSans-Bold-4a"/>
     <use xlink:href="#DejaVuSans-Bold-61" transform="translate(37.207031 0)"/>
     <use xlink:href="#DejaVuSans-Bold-76" transform="translate(104.6875 0)"/>
     <use xlink:href="#DejaVuSans-Bold-61" transform="translate(169.873047 0)"/>
     <use xlink:href="#DejaVuSans-Bold-53" transform="translate(237.353516 0)"/>
     <use xlink:href="#DejaVuSans-Bold-63" transform="translate(309.375 0)"/>
     <use xlink:href="#DejaVuSans-Bold-72" transform="translate(368.652344 0)"/>
     <use xlink:href="#DejaVuSans-Bold-69" transform="translate(417.96875 0)"/>
     <use xlink:href="#DejaVuSans-Bold-70" transform="translate(452.246094 0)"/>
     <use xlink:href="#DejaVuSans-Bold-74" transform="translate(523.828125 0)"/>
     <use xlink:href="#DejaVuSans-Bold-32" transform="translate(571.630859 0)"/>
     <use xlink:href="#DejaVuSans-Bold-38" transform="translate(641.210938 0)"/>
     <use xlink:href="#DejaVuSans-Bold-2e" transform="translate(710.791016 0)"/>
     <use xlink:href="#DejaVuSans-Bold-34" transform="translate(748.779297 0)"/>
     <use xlink:href="#DejaVuSans-Bold-31" transform="translate(818.359375 0)"/>
     <use xlink:href="#DejaVuSans-Bold-25" transform="translate(887.939453 0)"/>
    </g>
   </g>
   <g id="text_3">
    <!-- Python23.42% -->
    <g style="fill: #ffffff" transform="translate(13.9428 172.878936) scale(0.11 -0.11)">
     <defs>
      <path id="DejaVuSans-Bold-50" d="M 588 4666 
L 2584 4666 
Q 3475 4666 3951 4270 
Q 4428 3875 4428 3144 
Q 4428 2409 3951 2014 
Q 3475 1619 2584 1619 
L 1791 1619 
L 1791 0 
L 588 0 
L 588 4666 
z
M 1791 3794 
L 1791 2491 
L 2456 2491 
Q 2806 2491 2997 2661 
Q 3188 2831 3188 3144 
Q 3188 3456 2997 3625 
Q 2806 3794 2456 3794 
L 1791 3794 
z
" transform="scale(0.015625)"/>
      <path id="DejaVuSans-Bold-79" d="M 78 3500 
L 1197 3500 
L 2138 1125 
L 2938 3500 
L 4056 3500 
L 2584 -331 
Q 2363 -916 2067 -1148 
Q 1772 -1381 1288 -1381 
L 641 -1381 
L 641 -647 
L 991 -647 
Q 1275 -647 1404 -556 
Q 1534 -466 1606 -231 
L 1638 -134 
L 78 3500 
z
" transform="scale(0.015625)"/>
      <path id="DejaVuSans-Bold-68" d="M 4056 2131 
L 4056 0 
L 2931 0 
L 2931 347 
L 2931 1625 
Q 2931 2084 2911 2256 
Q 2891 2428 2841 2509 
Q 2775 2619 2662 2680 
Q 2550 2741 2406 2741 
Q 2056 2741 1856 2470 
Q 1656 2200 1656 1722 
L 1656 0 
L 538 0 
L 538 4863 
L 1656 4863 
L 1656 2988 
Q 1909 3294 2193 3439 
Q 2478 3584 2822 3584 
Q 3428 3584 3742 3212 
Q 4056 2841 4056 2131 
z
" transform="scale(0.015625)"/>
      <path id="DejaVuSans-Bold-6f" d="M 2203 2784 
Q 1831 2784 1636 2517 
Q 1441 2250 1441 1747 
Q 1441 1244 1636 976 
Q 1831 709 2203 709 
Q 2569 709 2762 976 
Q 2956 1244 2956 1747 
Q 2956 2250 2762 2517 
Q 2569 2784 2203 2784 
z
M 2203 3584 
Q 3106 3584 3614 3096 
Q 4122 2609 4122 1747 
Q 4122 884 3614 396 
Q 3106 -91 2203 -91 
Q 1297 -91 786 396 
Q 275 884 275 1747 
Q 275 2609 786 3096 
Q 1297 3584 2203 3584 
z
" transform="scale(0.015625)"/>
      <path id="DejaVuSans-Bold-6e" d="M 4056 2131 
L 4056 0 
L 2931 0 
L 2931 347 
L 2931 1631 
Q 2931 2084 2911 2256 
Q 2891 2428 2841 2509 
Q 2775 2619 2662 2680 
Q 2550 2741 2406 2741 
Q 2056 2741 1856 2470 
Q 1656 2200 1656 1722 
L 1656 0 
L 538 0 
L 538 3500 
L 1656 3500 
L 1656 2988 
Q 1909 3294 2193 3439 
Q 2478 3584 2822 3584 
Q 3428 3584 3742 3212 
Q 4056 2841 4056 2131 
z
" transform="scale(0.015625)"/>
      <path id="DejaVuSans-Bold-33" d="M 2981 2516 
Q 3453 2394 3698 2092 
Q 3944 1791 3944 1325 
Q 3944 631 3412 270 
Q 2881 -91 1863 -91 
Q 1503 -91 1142 -33 
Q 781 25 428 141 
L 428 1069 
Q 766 900 1098 814 
Q 1431 728 1753 728 
Q 2231 728 2486 893 
Q 2741 1059 2741 1369 
Q 2741 1688 2480 1852 
Q 2219 2016 1709 2016 
L 1228 2016 
L 1228 2791 
L 1734 2791 
Q 2188 2791 2409 2933 
Q 2631 3075 2631 3366 
Q 2631 3634 2415 3781 
Q 2200 3928 1806 3928 
Q 1516 3928 1219 3862 
Q 922 3797 628 3669 
L 628 4550 
Q 984 4650 1334 4700 
Q 1684 4750 2022 4750 
Q 2931 4750 3382 4451 
Q 3834 4153 3834 3553 
Q 3834 3144 3618 2883 
Q 3403 2622 2981 2516 
z
" transform="scale(0.015625)"/>
     </defs>
     <use xlink:href="#DejaVuSans-Bold-50"/>
     <use xlink:href="#DejaVuSans-Bold-79" transform="translate(75.166016 0)"/>
     <use xlink:href="#DejaVuSans-Bold-74" transform="translate(140.351562 0)"/>
     <use xlink:href="#DejaVuSans-Bold-68" transform="translate(188.154297 0)"/>
     <use xlink:href="#DejaVuSans-Bold-6f" transform="translate(259.345703 0)"/>
     <use xlink:href="#DejaVuSans-Bold-6e" transform="translate(328.046875 0)"/>
     <use xlink:href="#DejaVuSans-Bold-32" transform="translate(399.238281 0)"/>
     <use xlink:href="#DejaVuSans-Bold-33" transform="translate(468.818359 0)"/>
     <use xlink:href="#DejaVuSans-Bold-2e" transform="translate(538.398438 0)"/>
     <use xlink:href="#DejaVuSans-Bold-34" transform="translate(576.386719 0)"/>
     <use xlink:href="#DejaVuSans-Bold-32" transform="translate(645.966797 0)"/>
     <use xlink:href="#DejaVuSans-Bold-25" transform="translate(715.546875 0)"/>
    </g>
   </g>
   <g id="text_4">
    <!-- HTML18.59% -->
    <g style="fill: #ffffff" transform="translate(13.9428 202.750641) scale(0.11 -0.11)">
     <defs>
      <path id="DejaVuSans-Bold-48" d="M 588 4666 
L 1791 4666 
L 1791 2888 
L 3566 2888 
L 3566 4666 
L 4769 4666 
L 4769 0 
L 3566 0 
L 3566 1978 
L 1791 1978 
L 1791 0 
L 588 0 
L 588 4666 
z
" transform="scale(0.015625)"/>
      <path id="DejaVuSans-Bold-54" d="M 31 4666 
L 4331 4666 
L 4331 3756 
L 2784 3756 
L 2784 0 
L 1581 0 
L 1581 3756 
L 31 3756 
L 31 4666 
z
" transform="scale(0.015625)"/>
      <path id="DejaVuSans-Bold-4d" d="M 588 4666 
L 2119 4666 
L 3181 2169 
L 4250 4666 
L 5778 4666 
L 5778 0 
L 4641 0 
L 4641 3413 
L 3566 897 
L 2803 897 
L 1728 3413 
L 1728 0 
L 588 0 
L 588 4666 
z
" transform="scale(0.015625)"/>
      <path id="DejaVuSans-Bold-4c" d="M 588 4666 
L 1791 4666 
L 1791 909 
L 3903 909 
L 3903 0 
L 588 0 
L 588 4666 
z
" transform="scale(0.015625)"/>
     </defs>
     <use xlink:href="#DejaVuSans-Bold-48"/>
     <use xlink:href="#DejaVuSans-Bold-54" transform="translate(83.691406 0)"/>
     <use xlink:href="#DejaVuSans-Bold-4d" transform="translate(151.904297 0)"/>
     <use xlink:href="#DejaVuSans-Bold-4c" transform="translate(251.416016 0)"/>
     <use xlink:href="#DejaVuSans-Bold-31" transform="translate(315.136719 0)"/>
     <use xlink:href="#DejaVuSans-Bold-38" transform="translate(384.716797 0)"/>
     <use xlink:href="#DejaVuSans-Bold-2e" transform="translate(454.296875 0)"/>
     <use xlink:href="#DejaVuSans-Bold-35" transform="translate(492.285156 0)"/>
     <use xlink:href="#DejaVuSans-Bold-39" transform="translate(561.865234 0)"/>
     <use xlink:href="#DejaVuSans-Bold-25" transform="translate(631.445312 0)"/>
    </g>
   </g>
  </g>
 </g>
 <defs>
  <clipPath id="p5420b355f6">
   <rect x="10.8" y="10.8" width="698.4" height="165.7152"/>
  </clipPath>
 </defs>
</svg>
